# Blender v2.76 (sub 0) OBJ File: 'fawset.blend'
# www.blender.org
mtllib fawset.mtl
o Cube_Cube.001
v 4.324481 0.227316 1.003864
v 4.250504 1.077325 0.003864
v 4.324481 0.227316 -0.996136
v 2.168173 0.446894 -0.996136
v 4.324481 0.007738 1.003864
v 4.324481 0.446894 1.003864
v 4.324481 0.007738 -0.996136
v 4.324481 0.446894 -0.996136
v 0.011866 0.446894 -0.996136
v 0.011866 0.007738 -0.996136
v 0.011866 0.446894 1.003864
v 0.011866 0.007738 1.003864
v 4.324481 0.007738 0.003864
v 2.168173 0.007738 1.003864
v 2.168173 0.007738 -0.996136
v 2.168173 0.446894 1.003864
v 0.011866 0.446894 0.003864
v 0.011866 0.007738 0.003864
v 0.011866 0.227316 1.003864
v 0.011866 0.227316 -0.996136
v 2.168173 0.227316 1.003864
v 2.168173 0.446894 0.003864
v 2.168173 0.007738 0.003864
v 4.324481 0.227316 0.003864
v 2.168173 0.227316 -0.996136
v 3.246327 0.446894 1.003864
v 3.246327 0.007738 -0.996136
v 1.090020 0.007738 1.003864
v 4.324481 0.007738 0.503864
v 3.246327 0.446894 -0.996136
v 4.324481 0.117527 -0.996136
v 4.324481 0.337105 1.003864
v 4.324481 0.446894 0.503864
v 4.324481 0.117527 1.003864
v 4.324481 0.007738 -0.496136
v 4.324481 0.446894 -0.496136
v 3.246327 0.007738 1.003864
v 4.324481 0.337105 -0.996136
v 1.090020 0.007738 -0.996136
v 1.090020 0.446894 1.003864
v 1.090020 0.446894 -0.996136
v 0.011866 0.446894 0.503864
v 0.011866 0.007738 0.503864
v 0.011866 0.117527 1.003864
v 0.011866 0.117527 -0.996136
v 0.011866 0.446894 -0.496136
v 0.011866 0.007738 -0.496136
v 0.011866 0.337105 1.003864
v 0.011866 0.337105 -0.996136
v 2.168173 0.117527 1.003864
v 2.168173 0.337105 1.003864
v 3.246327 0.227316 1.003864
v 1.090020 0.227316 1.003864
v 1.090020 0.446894 0.003864
v 4.250504 1.077325 -0.496136
v 2.168173 0.446894 0.503864
v 2.168173 0.446894 -0.496136
v 3.246327 0.007738 0.003864
v 1.090020 0.007738 0.003864
v 2.168173 0.007738 0.503864
v 2.168173 0.007738 -0.496136
v 4.324481 0.117527 0.003864
v 4.324481 0.337105 0.003864
v 4.324481 0.227316 -0.496136
v 4.324481 0.227316 0.503864
v 2.168173 0.117527 -0.996136
v 2.168173 0.337105 -0.996136
v 1.090020 0.227316 -0.996136
v 3.246327 0.227316 -0.996136
v 3.246327 0.337105 -0.996136
v 1.090020 0.337105 -0.996136
v 1.090020 0.117527 -0.996136
v 4.324481 0.337105 0.503864
v 4.324481 0.337105 -0.496136
v 4.324481 0.117527 -0.496136
v 1.090020 0.007738 -0.496136
v 1.090020 0.007738 0.503864
v 3.246327 0.007738 0.503864
v 3.246327 0.446894 -0.496136
v 3.246327 0.117527 1.003864
v 1.090020 0.117527 1.003864
v 3.246327 0.337105 1.003864
v 1.090020 0.446894 -0.496136
v 1.090020 0.337105 1.003864
v 3.246327 0.007738 -0.496136
v 1.090020 0.446894 0.503864
v 4.324481 0.117527 0.503864
v 3.246327 0.117527 -0.996136
v 3.246327 0.446894 0.503864
v 4.336047 0.902586 -0.496136
v 4.336047 0.902586 0.003864
v 3.257894 0.902586 0.003864
v 2.179740 0.902586 0.003864
v 2.179740 0.902586 -0.496136
v 4.336047 0.902586 0.503864
v 2.179740 0.902586 0.503864
v 4.336047 0.792797 0.003864
v 4.336047 0.792797 0.503864
v 4.336047 0.792797 -0.496136
v 3.257894 0.902586 -0.496136
v 3.257894 0.902586 0.503864
v 4.250504 1.077325 0.503864
v 3.343436 1.660114 0.003864
v 3.343436 1.660114 -0.496136
v 3.343436 1.660114 0.503864
v 4.344159 1.300347 -0.496136
v 4.344159 1.300347 0.003864
v 4.344159 1.300347 0.503864
v 3.732266 2.188043 0.003864
v 3.732266 2.188043 -0.496136
v 3.732266 2.188043 0.503864
v 6.136440 1.323819 -0.496137
v 6.136441 1.323819 0.003863
v 6.136441 1.323819 0.503863
v 5.871629 2.368946 0.003863
v 5.871629 2.368946 -0.496137
v 5.871629 2.368946 0.503863
v 1.090020 2.481816 1.003864
v 0.011866 2.481816 1.003864
v 0.011866 2.481816 0.503864
v 0.011866 2.481816 -0.496136
v 0.011866 2.481816 0.003864
v 1.090020 2.481816 0.003864
v 1.090020 2.481816 -0.496136
v 1.090020 2.481816 0.503864
v 0.011866 1.412838 -0.496136
v 0.011866 1.412838 0.003864
v 0.011866 1.412838 1.003864
v 0.011866 1.412838 0.503864
v 1.090020 1.412838 1.003864
v 1.090020 1.412838 0.003864
v 1.090020 1.412838 0.503864
v 1.090020 1.412838 -0.496136
v 0.757070 2.734920 4.066419
v 0.011866 2.734920 4.066419
v 0.011866 1.665942 4.066419
v 0.757070 1.665942 4.066419
v -4.326116 0.227316 1.003864
v -4.252140 1.077325 0.003864
v -4.326116 0.227316 -0.996136
v -2.169809 0.446894 -0.996136
v -4.326116 0.007738 1.003864
v -4.326116 0.446894 1.003864
v -4.326116 0.007738 -0.996136
v -4.326116 0.446894 -0.996136
v -0.013502 0.446894 -0.996136
v -0.013502 0.007738 -0.996136
v -0.013502 0.446894 1.003864
v -0.013502 0.007738 1.003864
v -4.326116 0.007738 0.003864
v -2.169809 0.007738 1.003864
v -2.169809 0.007738 -0.996136
v -2.169809 0.446894 1.003864
v -0.013502 0.446894 0.003864
v -0.013502 0.007738 0.003864
v -0.013502 0.227316 1.003864
v -0.013502 0.227316 -0.996136
v -2.169809 0.227316 1.003864
v -2.169809 0.446894 0.003864
v -2.169809 0.007738 0.003864
v -4.326116 0.227316 0.003864
v -2.169809 0.227316 -0.996136
v -3.247963 0.446894 1.003864
v -3.247963 0.007738 -0.996136
v -1.091656 0.007738 1.003864
v -4.326116 0.007738 0.503864
v -3.247963 0.446894 -0.996136
v -4.326116 0.117527 -0.996136
v -4.326116 0.337105 1.003864
v -4.326116 0.446894 0.503864
v -4.326116 0.117527 1.003864
v -4.326116 0.007738 -0.496136
v -4.326116 0.446894 -0.496136
v -3.247963 0.007738 1.003864
v -4.326116 0.337105 -0.996136
v -1.091656 0.007738 -0.996136
v -1.091656 0.446894 1.003864
v -1.091656 0.446894 -0.996136
v -0.013502 0.446894 0.503864
v -0.013502 0.007738 0.503864
v -0.013502 0.117527 1.003864
v -0.013502 0.117527 -0.996136
v -0.013502 0.446894 -0.496136
v -0.013502 0.007738 -0.496136
v -0.013502 0.337105 1.003864
v -0.013502 0.337105 -0.996136
v -2.169809 0.117527 1.003864
v -2.169809 0.337105 1.003864
v -3.247963 0.227316 1.003864
v -1.091656 0.227316 1.003864
v -1.091656 0.446894 0.003864
v -4.252140 1.077325 -0.496136
v -2.169809 0.446894 0.503864
v -2.169809 0.446894 -0.496136
v -3.247963 0.007738 0.003864
v -1.091656 0.007738 0.003864
v -2.169809 0.007738 0.503864
v -2.169809 0.007738 -0.496136
v -4.326116 0.117527 0.003864
v -4.326116 0.337105 0.003864
v -4.326116 0.227316 -0.496136
v -4.326116 0.227316 0.503864
v -2.169809 0.117527 -0.996136
v -2.169809 0.337105 -0.996136
v -1.091656 0.227316 -0.996136
v -3.247963 0.227316 -0.996136
v -3.247963 0.337105 -0.996136
v -1.091656 0.337105 -0.996136
v -1.091656 0.117527 -0.996136
v -4.326116 0.337105 0.503864
v -4.326116 0.337105 -0.496136
v -4.326116 0.117527 -0.496136
v -1.091656 0.007738 -0.496136
v -1.091656 0.007738 0.503864
v -3.247963 0.007738 0.503864
v -3.247963 0.446894 -0.496136
v -3.247963 0.117527 1.003864
v -1.091656 0.117527 1.003864
v -3.247963 0.337105 1.003864
v -1.091656 0.446894 -0.496136
v -1.091656 0.337105 1.003864
v -3.247963 0.007738 -0.496136
v -1.091656 0.446894 0.503864
v -4.326116 0.117527 0.503864
v -3.247963 0.117527 -0.996136
v -3.247963 0.446894 0.503864
v -4.337683 0.902586 -0.496136
v -4.337683 0.902586 0.003864
v -3.259530 0.902586 0.003864
v -2.181376 0.902586 0.003864
v -2.181376 0.902586 -0.496136
v -4.337683 0.902586 0.503864
v -2.181376 0.902586 0.503864
v -4.337683 0.792797 0.003864
v -4.337683 0.792797 0.503864
v -4.337683 0.792797 -0.496136
v -3.259530 0.902586 -0.496136
v -3.259530 0.902586 0.503864
v -4.252140 1.077325 0.503864
v -3.345072 1.660114 0.003864
v -3.345072 1.660114 -0.496136
v -3.345072 1.660114 0.503864
v -4.345794 1.300347 -0.496136
v -4.345795 1.300347 0.003864
v -4.345795 1.300347 0.503864
v -3.733902 2.188043 0.003864
v -3.733902 2.188043 -0.496136
v -3.733902 2.188043 0.503864
v -6.138076 1.323819 -0.496137
v -6.138077 1.323819 0.003863
v -6.138077 1.323819 0.503863
v -5.873265 2.368946 0.003863
v -5.873265 2.368946 -0.496137
v -5.873265 2.368946 0.503863
v -1.091656 2.481816 1.003864
v -0.013502 2.481816 1.003864
v -0.013502 2.481816 0.503864
v -0.013502 2.481816 -0.496136
v -0.013502 2.481816 0.003864
v -1.091656 2.481816 0.003864
v -1.091656 2.481816 -0.496136
v -1.091656 2.481816 0.503864
v -0.013502 1.412838 -0.496136
v -0.013502 1.412838 0.003864
v -0.013502 1.412838 1.003864
v -0.013502 1.412838 0.503864
v -1.091656 1.412838 1.003864
v -1.091656 1.412838 0.003864
v -1.091656 1.412838 0.503864
v -1.091656 1.412838 -0.496136
v -0.758706 2.734920 4.066419
v -0.013502 2.734920 4.066419
v -0.013502 1.665942 4.066419
v -0.758706 1.665942 4.066419
vn -0.999700 0.025400 0.000000
vn 0.000000 0.000000 -1.000000
vn 1.000000 0.000000 0.000000
vn -1.000000 0.000000 0.000000
vn 0.000000 -1.000000 0.000000
vn 0.000000 0.000000 1.000000
vn 0.000000 1.000000 0.000000
vn 0.999700 -0.025400 0.000000
vn -0.993700 0.112200 0.000000
vn -0.805200 0.593000 0.000000
vn 0.898200 0.439700 0.000000
vn 0.922000 -0.387200 -0.000000
vn 0.969400 0.245600 -0.000000
vn 0.013100 -0.999900 0.000000
vn -0.084300 0.996400 0.000000
vn 0.994100 0.000000 0.108100
vn 0.000000 -0.996600 0.082400
vn 0.000000 0.996600 -0.082400
vn 0.999700 0.025400 0.000000
vn -0.999700 -0.025400 0.000000
vn 0.993700 0.112200 0.000000
vn 0.805200 0.593000 0.000000
vn -0.898200 0.439700 0.000000
vn -0.922000 -0.387200 -0.000000
vn -0.969400 0.245600 -0.000000
vn -0.013100 -0.999900 0.000000
vn 0.084300 0.996400 0.000000
vn -0.994100 0.000000 0.108100
usemtl None
s off
f 57//1 22//1 93//1 94//1
f 88//2 31//2 7//2 27//2
f 87//3 34//3 5//3 29//3
f 127//4 129//4 120//4 122//4
f 85//5 27//5 7//5 35//5
f 84//6 48//6 19//6 53//6
f 83//7 41//7 9//7 46//7
f 82//6 51//6 21//6 52//6
f 81//6 44//6 12//6 28//6
f 80//6 50//6 14//6 37//6
f 79//7 30//7 4//7 57//7
f 78//5 58//5 13//5 29//5
f 77//5 59//5 23//5 60//5
f 76//5 39//5 15//5 61//5
f 75//3 62//3 13//3 35//3
f 74//3 63//3 24//3 64//3
f 73//3 32//3 1//3 65//3
f 72//2 66//2 15//2 39//2
f 71//2 67//2 25//2 68//2
f 70//2 38//2 3//2 69//2
f 67//2 70//2 69//2 25//2
f 4//2 30//2 70//2 67//2
f 30//2 8//2 38//2 70//2
f 49//2 71//2 68//2 20//2
f 9//2 41//2 71//2 49//2
f 41//2 4//2 67//2 71//2
f 45//2 72//2 39//2 10//2
f 20//2 68//2 72//2 45//2
f 68//2 25//2 66//2 72//2
f 63//3 73//3 65//3 24//3
f 73//8 63//8 97//8 98//8
f 33//3 6//3 32//3 73//3
f 38//3 74//3 64//3 3//3
f 8//3 36//3 74//3 38//3
f 74//2 36//2 90//2 99//2
f 31//3 75//3 35//3 7//3
f 3//3 64//3 75//3 31//3
f 64//3 24//3 62//3 75//3
f 59//5 76//5 61//5 23//5
f 18//5 47//5 76//5 59//5
f 47//5 10//5 39//5 76//5
f 28//5 77//5 60//5 14//5
f 12//5 43//5 77//5 28//5
f 43//5 18//5 59//5 77//5
f 37//5 78//5 29//5 5//5
f 14//5 60//5 78//5 37//5
f 60//5 23//5 58//5 78//5
f 22//1 56//1 96//1 93//1
f 36//2 79//2 100//2 90//2
f 36//7 8//7 30//7 79//7
f 34//6 80//6 37//6 5//6
f 1//6 52//6 80//6 34//6
f 52//6 21//6 50//6 80//6
f 50//6 81//6 28//6 14//6
f 21//6 53//6 81//6 50//6
f 53//6 19//6 44//6 81//6
f 32//6 82//6 52//6 1//6
f 6//6 26//6 82//6 32//6
f 26//6 16//6 51//6 82//6
f 129//4 128//4 119//4 120//4
f 22//7 57//7 83//7 54//7
f 57//7 4//7 41//7 83//7
f 51//6 84//6 53//6 21//6
f 16//6 40//6 84//6 51//6
f 40//6 11//6 48//6 84//6
f 58//5 85//5 35//5 13//5
f 23//5 61//5 85//5 58//5
f 61//5 15//5 27//5 85//5
f 126//4 127//4 122//4 121//4
f 16//7 56//7 86//7 40//7
f 56//7 22//7 54//7 86//7
f 62//3 87//3 29//3 13//3
f 24//3 65//3 87//3 62//3
f 65//3 1//3 34//3 87//3
f 66//2 88//2 27//2 15//2
f 25//2 69//2 88//2 66//2
f 69//2 3//2 31//2 88//2
f 26//7 89//7 56//7 16//7
f 6//7 33//7 89//7 26//7
f 33//6 73//6 98//6 95//6
f 101//7 92//7 93//7 96//7
f 91//3 95//3 98//3 97//3
f 90//3 91//3 97//3 99//3
f 92//7 100//7 94//7 93//7
f 100//9 92//9 103//9 104//9
f 101//6 95//6 102//6 105//6
f 56//6 89//6 101//6 96//6
f 63//8 74//8 99//8 97//8
f 79//2 57//2 94//2 100//2
f 89//6 33//6 95//6 101//6
f 104//10 103//10 109//10 110//10
f 103//10 105//10 111//10 109//10
f 91//11 90//11 55//11 2//11
f 92//9 101//9 105//9 103//9
f 95//11 91//11 2//11 102//11
f 90//2 100//2 104//2 55//2
f 106//2 110//2 116//2 112//2
f 111//6 108//6 114//6 117//6
f 2//12 55//12 106//12 107//12
f 105//6 102//6 108//6 111//6
f 55//2 104//2 110//2 106//2
f 102//12 2//12 107//12 108//12
f 113//13 112//13 116//13 115//13
f 114//13 113//13 115//13 117//13
f 108//14 107//14 113//14 114//14
f 109//15 111//15 117//15 115//15
f 110//15 109//15 115//15 116//15
f 107//14 106//14 112//14 113//14
f 125//7 123//7 122//7 120//7
f 123//7 124//7 121//7 122//7
f 118//7 125//7 120//7 119//7
f 130//16 118//16 134//16 137//16
f 132//3 131//3 123//3 125//3
f 131//3 133//3 124//3 123//3
f 133//2 126//2 121//2 124//2
f 130//3 132//3 125//3 118//3
f 40//3 86//3 132//3 130//3
f 83//2 46//2 126//2 133//2
f 54//3 83//3 133//3 131//3
f 86//3 54//3 131//3 132//3
f 11//6 40//6 130//6 128//6
f 46//4 17//4 127//4 126//4
f 42//4 11//4 128//4 129//4
f 17//4 42//4 129//4 127//4
f 136//6 137//6 134//6 135//6
f 119//4 128//4 136//4 135//4
f 128//17 130//17 137//17 136//17
f 118//18 119//18 135//18 134//18
f 194//19 231//19 230//19 159//19
f 225//2 164//2 144//2 168//2
f 224//4 166//4 142//4 171//4
f 264//3 259//3 257//3 266//3
f 222//5 172//5 144//5 164//5
f 221//6 190//6 156//6 185//6
f 220//7 183//7 146//7 178//7
f 219//6 189//6 158//6 188//6
f 218//6 165//6 149//6 181//6
f 217//6 174//6 151//6 187//6
f 216//7 194//7 141//7 167//7
f 215//5 166//5 150//5 195//5
f 214//5 197//5 160//5 196//5
f 213//5 198//5 152//5 176//5
f 212//4 172//4 150//4 199//4
f 211//4 201//4 161//4 200//4
f 210//4 202//4 138//4 169//4
f 209//2 176//2 152//2 203//2
f 208//2 205//2 162//2 204//2
f 207//2 206//2 140//2 175//2
f 204//2 162//2 206//2 207//2
f 141//2 204//2 207//2 167//2
f 167//2 207//2 175//2 145//2
f 186//2 157//2 205//2 208//2
f 146//2 186//2 208//2 178//2
f 178//2 208//2 204//2 141//2
f 182//2 147//2 176//2 209//2
f 157//2 182//2 209//2 205//2
f 205//2 209//2 203//2 162//2
f 200//4 161//4 202//4 210//4
f 210//20 235//20 234//20 200//20
f 170//4 210//4 169//4 143//4
f 175//4 140//4 201//4 211//4
f 145//4 175//4 211//4 173//4
f 211//2 236//2 227//2 173//2
f 168//4 144//4 172//4 212//4
f 140//4 168//4 212//4 201//4
f 201//4 212//4 199//4 161//4
f 196//5 160//5 198//5 213//5
f 155//5 196//5 213//5 184//5
f 184//5 213//5 176//5 147//5
f 165//5 151//5 197//5 214//5
f 149//5 165//5 214//5 180//5
f 180//5 214//5 196//5 155//5
f 174//5 142//5 166//5 215//5
f 151//5 174//5 215//5 197//5
f 197//5 215//5 195//5 160//5
f 159//19 230//19 233//19 193//19
f 173//2 227//2 237//2 216//2
f 173//7 216//7 167//7 145//7
f 171//6 142//6 174//6 217//6
f 138//6 171//6 217//6 189//6
f 189//6 217//6 187//6 158//6
f 187//6 151//6 165//6 218//6
f 158//6 187//6 218//6 190//6
f 190//6 218//6 181//6 156//6
f 169//6 138//6 189//6 219//6
f 143//6 169//6 219//6 163//6
f 163//6 219//6 188//6 153//6
f 266//3 257//3 256//3 265//3
f 159//7 191//7 220//7 194//7
f 194//7 220//7 178//7 141//7
f 188//6 158//6 190//6 221//6
f 153//6 188//6 221//6 177//6
f 177//6 221//6 185//6 148//6
f 195//5 150//5 172//5 222//5
f 160//5 195//5 222//5 198//5
f 198//5 222//5 164//5 152//5
f 263//3 258//3 259//3 264//3
f 153//7 177//7 223//7 193//7
f 193//7 223//7 191//7 159//7
f 199//4 150//4 166//4 224//4
f 161//4 199//4 224//4 202//4
f 202//4 224//4 171//4 138//4
f 203//2 152//2 164//2 225//2
f 162//2 203//2 225//2 206//2
f 206//2 225//2 168//2 140//2
f 163//7 153//7 193//7 226//7
f 143//7 163//7 226//7 170//7
f 170//6 232//6 235//6 210//6
f 238//7 233//7 230//7 229//7
f 228//4 234//4 235//4 232//4
f 227//4 236//4 234//4 228//4
f 229//7 230//7 231//7 237//7
f 237//21 241//21 240//21 229//21
f 238//6 242//6 239//6 232//6
f 193//6 233//6 238//6 226//6
f 200//20 234//20 236//20 211//20
f 216//2 237//2 231//2 194//2
f 226//6 238//6 232//6 170//6
f 241//22 247//22 246//22 240//22
f 240//22 246//22 248//22 242//22
f 228//23 139//23 192//23 227//23
f 229//21 240//21 242//21 238//21
f 232//23 239//23 139//23 228//23
f 227//2 192//2 241//2 237//2
f 243//2 249//2 253//2 247//2
f 248//6 254//6 251//6 245//6
f 139//24 244//24 243//24 192//24
f 242//6 248//6 245//6 239//6
f 192//2 243//2 247//2 241//2
f 239//24 245//24 244//24 139//24
f 250//25 252//25 253//25 249//25
f 251//25 254//25 252//25 250//25
f 245//26 251//26 250//26 244//26
f 246//27 252//27 254//27 248//27
f 247//27 253//27 252//27 246//27
f 244//26 250//26 249//26 243//26
f 262//7 257//7 259//7 260//7
f 260//7 259//7 258//7 261//7
f 255//7 256//7 257//7 262//7
f 267//28 274//28 271//28 255//28
f 269//4 262//4 260//4 268//4
f 268//4 260//4 261//4 270//4
f 270//2 261//2 258//2 263//2
f 267//4 255//4 262//4 269//4
f 177//4 267//4 269//4 223//4
f 220//2 270//2 263//2 183//2
f 191//4 268//4 270//4 220//4
f 223//4 269//4 268//4 191//4
f 148//6 265//6 267//6 177//6
f 183//3 263//3 264//3 154//3
f 179//3 266//3 265//3 148//3
f 154//3 264//3 266//3 179//3
f 273//6 272//6 271//6 274//6
f 256//3 272//3 273//3 265//3
f 265//17 273//17 274//17 267//17
f 255//18 271//18 272//18 256//18
