# Blender v2.76 (sub 0) OBJ File: ''
# www.blender.org
mtllib glass.mtl
o Cylinder
v 0.000000 0.007453 -0.131420
v 0.000000 0.054374 -0.140661
v 0.025639 0.007453 -0.128894
v 0.027442 0.054374 -0.137958
v 0.050292 0.007453 -0.121416
v 0.053828 0.054374 -0.129953
v 0.073013 0.007453 -0.109271
v 0.078147 0.054374 -0.116955
v 0.092928 0.007453 -0.092928
v 0.099462 0.054374 -0.099462
v 0.109271 0.007453 -0.073013
v 0.116955 0.054374 -0.078147
v 0.121416 0.007453 -0.050292
v 0.129953 0.054374 -0.053828
v 0.128894 0.007453 -0.025639
v 0.137958 0.054374 -0.027442
v 0.131420 0.007453 0.000000
v 0.140661 0.054374 0.000000
v 0.128894 0.007453 0.025639
v 0.137958 0.054374 0.027442
v 0.121416 0.007453 0.050292
v 0.129953 0.054374 0.053829
v 0.109271 0.007453 0.073013
v 0.116955 0.054374 0.078147
v 0.092928 0.007453 0.092928
v 0.099462 0.054374 0.099462
v 0.073013 0.007453 0.109271
v 0.078147 0.054374 0.116955
v 0.050292 0.007453 0.121416
v 0.053828 0.054374 0.129954
v 0.025639 0.007453 0.128894
v 0.027441 0.054374 0.137958
v -0.000000 0.007453 0.131420
v -0.000000 0.054374 0.140661
v -0.025639 0.007453 0.128894
v -0.027442 0.054374 0.137958
v -0.050292 0.007453 0.121416
v -0.053829 0.054374 0.129954
v -0.073013 0.007453 0.109271
v -0.078147 0.054374 0.116955
v -0.092928 0.007453 0.092928
v -0.099462 0.054374 0.099462
v -0.109271 0.007453 0.073013
v -0.116955 0.054374 0.078147
v -0.121416 0.007453 0.050292
v -0.129954 0.054374 0.053828
v -0.128894 0.007453 0.025639
v -0.137958 0.054374 0.027441
v -0.131420 0.007453 -0.000000
v -0.140661 0.054374 -0.000000
v -0.128894 0.007453 -0.025639
v -0.137958 0.054374 -0.027442
v -0.121416 0.007453 -0.050292
v -0.129953 0.054374 -0.053829
v -0.109271 0.007453 -0.073013
v -0.116955 0.054374 -0.078147
v -0.092928 0.007453 -0.092928
v -0.099462 0.054374 -0.099462
v -0.073013 0.007453 -0.109271
v -0.078147 0.054374 -0.116955
v -0.050292 0.007453 -0.121416
v -0.053828 0.054374 -0.129954
v -0.025639 0.007453 -0.128894
v -0.027441 0.054374 -0.137958
v 0.030549 0.075106 -0.153581
v 0.000000 0.075106 -0.156590
v 0.059925 0.075106 -0.144671
v 0.086997 0.075106 -0.130200
v 0.110726 0.075106 -0.110726
v 0.130200 0.075106 -0.086997
v 0.144671 0.075106 -0.059924
v 0.153581 0.075106 -0.030549
v 0.156590 0.075106 0.000000
v 0.153581 0.075106 0.030549
v 0.144671 0.075106 0.059925
v 0.130200 0.075106 0.086997
v 0.110726 0.075106 0.110726
v 0.086997 0.075106 0.130200
v 0.059924 0.075106 0.144671
v 0.030549 0.075106 0.153581
v -0.000000 0.075106 0.156590
v -0.030549 0.075106 0.153581
v -0.059925 0.075106 0.144671
v -0.086997 0.075106 0.130200
v -0.110726 0.075106 0.110726
v -0.130200 0.075106 0.086997
v -0.144671 0.075106 0.059924
v -0.153581 0.075106 0.030549
v -0.156590 0.075106 -0.000000
v -0.153581 0.075106 -0.030549
v -0.144670 0.075106 -0.059925
v -0.130200 0.075106 -0.086997
v -0.110726 0.075106 -0.110726
v -0.086997 0.075106 -0.130200
v -0.059924 0.075106 -0.144671
v -0.030549 0.075106 -0.153581
v 0.035487 0.140170 -0.178407
v 0.000000 0.140170 -0.181902
v 0.069611 0.140170 -0.168055
v 0.101059 0.140170 -0.151246
v 0.128624 0.140170 -0.128624
v 0.151246 0.140170 -0.101059
v 0.168055 0.140170 -0.069611
v 0.178407 0.140170 -0.035487
v 0.181902 0.140170 0.000000
v 0.178407 0.140170 0.035487
v 0.168055 0.140170 0.069611
v 0.151246 0.140170 0.101059
v 0.128624 0.140170 0.128624
v 0.101059 0.140170 0.151246
v 0.069611 0.140170 0.168055
v 0.035487 0.140170 0.178407
v -0.000000 0.140170 0.181902
v -0.035487 0.140170 0.178407
v -0.069611 0.140170 0.168055
v -0.101059 0.140170 0.151246
v -0.128624 0.140170 0.128624
v -0.151246 0.140170 0.101059
v -0.168055 0.140170 0.069611
v -0.178407 0.140170 0.035487
v -0.181902 0.140170 -0.000000
v -0.178407 0.140170 -0.035487
v -0.168055 0.140170 -0.069611
v -0.151246 0.140170 -0.101059
v -0.128624 0.140170 -0.128624
v -0.101059 0.140170 -0.151246
v -0.069611 0.140170 -0.168055
v -0.035487 0.140170 -0.178407
v 0.038695 0.202114 -0.194535
v 0.000000 0.202114 -0.198346
v 0.075904 0.202114 -0.183248
v 0.110195 0.202114 -0.164919
v 0.140252 0.202114 -0.140252
v 0.164919 0.202114 -0.110195
v 0.183248 0.202114 -0.075904
v 0.194535 0.202114 -0.038695
v 0.198346 0.202114 0.000000
v 0.194535 0.202114 0.038695
v 0.183248 0.202114 0.075904
v 0.164919 0.202114 0.110195
v 0.140252 0.202114 0.140252
v 0.110195 0.202114 0.164919
v 0.075904 0.202114 0.183248
v 0.038695 0.202114 0.194535
v -0.000000 0.202114 0.198346
v -0.038695 0.202114 0.194535
v -0.075904 0.202114 0.183248
v -0.110195 0.202114 0.164919
v -0.140252 0.202114 0.140252
v -0.164919 0.202114 0.110195
v -0.183248 0.202114 0.075904
v -0.194535 0.202114 0.038695
v -0.198346 0.202114 -0.000000
v -0.194535 0.202114 -0.038696
v -0.183248 0.202114 -0.075904
v -0.164919 0.202114 -0.110195
v -0.140252 0.202114 -0.140252
v -0.110195 0.202114 -0.164919
v -0.075904 0.202114 -0.183248
v -0.038695 0.202114 -0.194535
v 0.039362 0.671940 -0.197884
v 0.000000 0.671940 -0.201760
v 0.077210 0.671940 -0.186402
v 0.112092 0.671940 -0.167758
v 0.142666 0.671940 -0.142666
v 0.167758 0.671940 -0.112092
v 0.186402 0.671940 -0.077210
v 0.197884 0.671940 -0.039361
v 0.201760 0.671940 0.000000
v 0.197884 0.671940 0.039362
v 0.186402 0.671940 0.077210
v 0.167758 0.671940 0.112092
v 0.142666 0.671940 0.142666
v 0.112092 0.671940 0.167758
v 0.077210 0.671940 0.186402
v 0.039361 0.671940 0.197884
v -0.000000 0.671940 0.201761
v -0.039362 0.671940 0.197884
v -0.077210 0.671940 0.186402
v -0.112092 0.671940 0.167758
v -0.142666 0.671940 0.142666
v -0.167758 0.671940 0.112092
v -0.186403 0.671940 0.077210
v -0.197884 0.671940 0.039361
v -0.201761 0.671940 -0.000000
v -0.197884 0.671940 -0.039362
v -0.186402 0.671940 -0.077211
v -0.167758 0.671940 -0.112092
v -0.142666 0.671940 -0.142666
v -0.112092 0.671940 -0.167758
v -0.077210 0.671940 -0.186402
v -0.039361 0.671940 -0.197884
v 0.036165 0.671940 -0.181816
v 0.000000 0.671940 -0.185378
v 0.070941 0.671940 -0.171267
v 0.102990 0.671940 -0.154136
v 0.131082 0.671940 -0.131082
v 0.154136 0.671940 -0.102990
v 0.171267 0.671940 -0.070941
v 0.181816 0.671940 -0.036165
v 0.185378 0.671940 0.000000
v 0.181816 0.671940 0.036165
v 0.171267 0.671940 0.070941
v 0.154136 0.671940 0.102990
v 0.131082 0.671940 0.131082
v 0.102990 0.671940 0.154136
v 0.070941 0.671940 0.171267
v 0.036165 0.671940 0.181816
v -0.000000 0.671940 0.185378
v -0.036165 0.671940 0.181816
v -0.070941 0.671940 0.171267
v -0.102990 0.671940 0.154136
v -0.131082 0.671940 0.131082
v -0.154136 0.671940 0.102990
v -0.171267 0.671940 0.070941
v -0.181816 0.671940 0.036165
v -0.185378 0.671940 -0.000000
v -0.181816 0.671940 -0.036166
v -0.171267 0.671940 -0.070941
v -0.154136 0.671940 -0.102990
v -0.131082 0.671940 -0.131082
v -0.102990 0.671940 -0.154136
v -0.070941 0.671940 -0.171267
v -0.036165 0.671940 -0.181816
v 0.032110 0.119987 -0.161427
v 0.000000 0.119987 -0.164590
v 0.062986 0.119987 -0.152061
v 0.091441 0.119987 -0.136851
v 0.116383 0.119987 -0.116382
v 0.136851 0.119987 -0.091441
v 0.152061 0.119987 -0.062986
v 0.161427 0.119987 -0.032110
v 0.164590 0.119987 0.000000
v 0.161427 0.119987 0.032110
v 0.152061 0.119987 0.062986
v 0.136851 0.119987 0.091441
v 0.116383 0.119987 0.116383
v 0.091441 0.119987 0.136851
v 0.062986 0.119987 0.152061
v 0.032110 0.119987 0.161427
v -0.000000 0.119987 0.164590
v -0.032110 0.119987 0.161427
v -0.062986 0.119987 0.152061
v -0.091441 0.119987 0.136851
v -0.116383 0.119987 0.116382
v -0.136851 0.119987 0.091441
v -0.152061 0.119987 0.062986
v -0.161427 0.119987 0.032110
v -0.164590 0.119987 -0.000000
v -0.161427 0.119987 -0.032110
v -0.152061 0.119987 -0.062986
v -0.136851 0.119987 -0.091441
v -0.116382 0.119987 -0.116383
v -0.091441 0.119987 -0.136851
v -0.062986 0.119987 -0.152061
v -0.032110 0.119987 -0.161427
vn 0.000000 -0.753300 -0.657600
vn 0.000000 -0.417600 -0.908600
vn 0.177300 -0.417600 -0.891200
vn 0.128300 -0.753300 -0.645000
vn 0.347700 -0.417600 -0.839400
vn 0.251700 -0.753300 -0.607600
vn 0.504800 -0.417600 -0.755500
vn 0.365400 -0.753300 -0.546800
vn 0.642500 -0.417600 -0.642500
vn 0.465000 -0.753300 -0.465000
vn 0.755500 -0.417600 -0.504800
vn 0.546800 -0.753300 -0.365400
vn 0.839400 -0.417600 -0.347700
vn 0.607600 -0.753300 -0.251700
vn 0.891200 -0.417600 -0.177300
vn 0.645000 -0.753300 -0.128300
vn 0.908600 -0.417600 0.000000
vn 0.657600 -0.753300 0.000000
vn 0.891200 -0.417600 0.177300
vn 0.645000 -0.753300 0.128300
vn 0.839400 -0.417600 0.347700
vn 0.607600 -0.753300 0.251700
vn 0.755500 -0.417600 0.504800
vn 0.546800 -0.753300 0.365400
vn 0.642500 -0.417600 0.642500
vn 0.465000 -0.753300 0.465000
vn 0.504800 -0.417600 0.755500
vn 0.365400 -0.753300 0.546800
vn 0.347700 -0.417600 0.839400
vn 0.251700 -0.753300 0.607600
vn 0.177300 -0.417600 0.891200
vn 0.128300 -0.753300 0.645000
vn 0.000000 -0.417600 0.908600
vn 0.000000 -0.753300 0.657600
vn -0.177300 -0.417600 0.891200
vn -0.128300 -0.753300 0.645000
vn -0.347700 -0.417600 0.839400
vn -0.251700 -0.753300 0.607600
vn -0.504800 -0.417600 0.755500
vn -0.365400 -0.753300 0.546800
vn -0.642500 -0.417600 0.642500
vn -0.465000 -0.753300 0.465000
vn -0.755500 -0.417600 0.504800
vn -0.546800 -0.753300 0.365400
vn -0.839400 -0.417600 0.347700
vn -0.607600 -0.753300 0.251700
vn -0.891200 -0.417600 0.177300
vn -0.645000 -0.753300 0.128300
vn -0.908600 -0.417600 0.000000
vn -0.657600 -0.753300 0.000000
vn -0.891200 -0.417600 -0.177300
vn -0.645000 -0.753300 -0.128300
vn -0.839400 -0.417600 -0.347700
vn -0.607600 -0.753300 -0.251700
vn -0.755500 -0.417600 -0.504800
vn -0.546800 -0.753300 -0.365400
vn -0.642500 -0.417600 -0.642500
vn -0.465000 -0.753300 -0.465000
vn -0.504800 -0.417600 -0.755500
vn -0.365400 -0.753300 -0.546800
vn -0.347700 -0.417600 -0.839400
vn -0.251700 -0.753300 -0.607600
vn 0.726100 -0.487100 -0.485200
vn 0.806800 -0.487100 -0.334200
vn -0.128300 -0.753300 -0.645000
vn -0.177300 -0.417600 -0.891200
vn 0.170400 -0.487100 0.856500
vn 0.334200 -0.487100 0.806800
vn 0.363900 -0.309000 0.878600
vn 0.185500 -0.309000 0.932800
vn -0.856500 -0.487100 0.170400
vn -0.873300 -0.487100 0.000000
vn 0.170400 -0.487100 -0.856500
vn 0.334200 -0.487100 -0.806800
vn 0.806800 -0.487100 0.334200
vn 0.726100 -0.487100 0.485200
vn -0.485200 -0.487100 0.726100
vn -0.617500 -0.487100 0.617500
vn -0.617500 -0.487100 -0.617500
vn -0.485200 -0.487100 -0.726100
vn 0.856500 -0.487100 -0.170400
vn 0.000000 -0.487100 0.873300
vn -0.856500 -0.487100 -0.170400
vn 0.485200 -0.487100 -0.726100
vn 0.617500 -0.487100 0.617500
vn -0.726100 -0.487100 0.485200
vn -0.334200 -0.487100 -0.806800
vn 0.873300 -0.487100 0.000000
vn -0.170400 -0.487100 0.856500
vn -0.806800 -0.487100 -0.334200
vn 0.617500 -0.487100 -0.617500
vn 0.485200 -0.487100 0.726100
vn -0.806800 -0.487100 0.334200
vn -0.170400 -0.487100 -0.856500
vn 0.856500 -0.487100 0.170400
vn -0.334200 -0.487100 0.806800
vn -0.726100 -0.487100 -0.485200
vn 0.000000 -0.487100 -0.873300
vn -0.363900 -0.309000 0.878600
vn -0.185500 -0.309000 0.932800
vn -0.193400 -0.131900 0.972200
vn -0.379300 -0.131900 0.915800
vn 0.185500 -0.309000 -0.932800
vn 0.363900 -0.309000 -0.878600
vn -0.672500 -0.309000 -0.672500
vn -0.528400 -0.309000 -0.790800
vn 0.000000 -0.309000 0.951000
vn 0.528400 -0.309000 -0.790800
vn -0.363900 -0.309000 -0.878600
vn 0.672500 -0.309000 -0.672500
vn -0.185500 -0.309000 -0.932800
vn 0.790800 -0.309000 -0.528400
vn 0.000000 -0.309000 -0.951000
vn -0.528400 -0.309000 0.790800
vn 0.878600 -0.309000 -0.363900
vn -0.672500 -0.309000 0.672500
vn 0.932800 -0.309000 -0.185500
vn -0.790800 -0.309000 0.528400
vn 0.951000 -0.309000 0.000000
vn -0.878600 -0.309000 0.363900
vn 0.932800 -0.309000 0.185500
vn -0.932800 -0.309000 0.185500
vn 0.878600 -0.309000 0.363900
vn -0.951000 -0.309000 0.000000
vn 0.790800 -0.309000 0.528400
vn -0.932800 -0.309000 -0.185500
vn 0.672500 -0.309000 0.672500
vn -0.878600 -0.309000 -0.363900
vn 0.528400 -0.309000 0.790800
vn -0.790800 -0.309000 -0.528400
vn -0.824200 -0.131900 0.550700
vn -0.700900 -0.131900 0.700900
vn -0.516400 0.683000 0.516400
vn -0.607300 0.683000 0.405700
vn 0.700900 -0.131900 -0.700900
vn 0.824200 -0.131900 -0.550700
vn -0.193400 -0.131900 -0.972200
vn 0.000000 -0.131900 -0.991200
vn -0.550700 -0.131900 0.824200
vn 0.915800 -0.131900 -0.379300
vn 0.972200 -0.131900 -0.193400
vn 0.991200 -0.131900 0.000000
vn -0.915800 -0.131900 0.379300
vn 0.972200 -0.131900 0.193400
vn -0.972200 -0.131900 0.193400
vn 0.915800 -0.131900 0.379300
vn -0.991200 -0.131900 0.000000
vn 0.824200 -0.131900 0.550700
vn -0.972200 -0.131900 -0.193400
vn 0.700900 -0.131900 0.700900
vn -0.915800 -0.131900 -0.379300
vn 0.550700 -0.131900 0.824200
vn -0.824200 -0.131900 -0.550700
vn 0.379300 -0.131900 0.915800
vn 0.193400 -0.131900 -0.972200
vn -0.700900 -0.131900 -0.700900
vn 0.193400 -0.131900 0.972200
vn 0.379300 -0.131900 -0.915800
vn -0.550700 -0.131900 -0.824200
vn 0.000000 -0.131900 0.991200
vn -0.379300 -0.131900 -0.915800
vn 0.550700 -0.131900 -0.824200
vn -0.730300 0.683000 0.000000
vn -0.716300 0.683000 0.142500
vn 0.656900 0.742500 -0.130600
vn 0.669800 0.742500 0.000000
vn 0.716300 0.683000 -0.142500
vn 0.730300 0.683000 0.000000
vn -0.674800 0.683000 0.279500
vn 0.716300 0.683000 0.142500
vn 0.674800 0.683000 0.279500
vn 0.607300 0.683000 0.405700
vn -0.716300 0.683000 -0.142500
vn 0.516400 0.683000 0.516400
vn -0.674800 0.683000 -0.279500
vn 0.405700 0.683000 0.607300
vn -0.607300 0.683000 -0.405700
vn 0.279500 0.683000 0.674800
vn 0.000000 0.683000 -0.730300
vn 0.142500 0.683000 -0.716300
vn -0.516400 0.683000 -0.516400
vn 0.142500 0.683000 0.716300
vn 0.279500 0.683000 -0.674800
vn -0.405700 0.683000 -0.607300
vn 0.000000 0.683000 0.730300
vn 0.405700 0.683000 -0.607300
vn -0.279500 0.683000 -0.674800
vn -0.142500 0.683000 0.716300
vn 0.516400 0.683000 -0.516400
vn -0.142500 0.683000 -0.716300
vn -0.279500 0.683000 0.674800
vn 0.607300 0.683000 -0.405700
vn -0.405700 0.683000 0.607300
vn 0.674800 0.683000 -0.279500
vn 0.556900 0.742500 0.372100
vn 0.618800 0.742500 0.256300
vn 0.660500 0.699200 0.273600
vn 0.594400 0.699200 0.397100
vn -0.618800 0.742500 -0.256300
vn -0.556900 0.742500 -0.372100
vn 0.656900 0.742500 0.130600
vn -0.473600 0.742500 -0.473600
vn -0.372100 0.742500 -0.556900
vn -0.256300 0.742500 -0.618800
vn 0.000000 0.742500 0.669800
vn -0.130600 0.742500 0.656900
vn 0.473600 0.742500 0.473600
vn -0.130600 0.742500 -0.656900
vn -0.256300 0.742500 0.618800
vn 0.372100 0.742500 0.556900
vn 0.000000 0.742500 -0.669800
vn -0.372100 0.742500 0.556900
vn 0.256300 0.742500 0.618800
vn 0.130600 0.742500 -0.656900
vn -0.473600 0.742500 0.473600
vn 0.130600 0.742500 0.656900
vn 0.256300 0.742500 -0.618800
vn -0.556900 0.742500 0.372100
vn 0.372100 0.742500 -0.556900
vn -0.618800 0.742500 0.256300
vn 0.473600 0.742500 -0.473600
vn -0.656900 0.742500 0.130600
vn 0.556900 0.742500 -0.372100
vn -0.669800 0.742500 0.000000
vn 0.618800 0.742500 -0.256300
vn -0.656900 0.742500 -0.130600
vn -0.139400 0.699200 0.701100
vn 0.000000 0.699200 0.714900
vn 0.139400 0.699200 0.701100
vn 0.273600 0.699200 0.660500
vn 0.397100 0.699200 0.594400
vn 0.505500 0.699200 0.505500
vn 0.701100 0.699200 0.139400
vn 0.714900 0.699200 0.000000
vn 0.701100 0.699200 -0.139400
vn 0.660500 0.699200 -0.273600
vn 0.594400 0.699200 -0.397100
vn 0.505500 0.699200 -0.505500
vn 0.397100 0.699200 -0.594400
vn 0.273600 0.699200 -0.660500
vn 0.139400 0.699200 -0.701100
vn 0.000000 0.699200 -0.714900
vn -0.139400 0.699200 -0.701100
vn -0.273600 0.699200 -0.660500
vn -0.397100 0.699200 -0.594400
vn -0.505500 0.699200 -0.505500
vn -0.594400 0.699200 -0.397100
vn -0.660500 0.699200 -0.273600
vn -0.701100 0.699200 -0.139400
vn -0.714900 0.699200 0.000000
vn -0.701100 0.699200 0.139400
vn -0.660500 0.699200 0.273600
vn -0.594400 0.699200 0.397100
vn -0.505500 0.699200 0.505500
vn -0.397100 0.699200 0.594400
vn -0.273600 0.699200 0.660500
usemtl None
s 1
f 1//1 2//2 4//3 3//4
f 3//4 4//3 6//5 5//6
f 5//6 6//5 8//7 7//8
f 7//8 8//7 10//9 9//10
f 9//10 10//9 12//11 11//12
f 11//12 12//11 14//13 13//14
f 13//14 14//13 16//15 15//16
f 15//16 16//15 18//17 17//18
f 17//18 18//17 20//19 19//20
f 19//20 20//19 22//21 21//22
f 21//22 22//21 24//23 23//24
f 23//24 24//23 26//25 25//26
f 25//26 26//25 28//27 27//28
f 27//28 28//27 30//29 29//30
f 29//30 30//29 32//31 31//32
f 31//32 32//31 34//33 33//34
f 33//34 34//33 36//35 35//36
f 35//36 36//35 38//37 37//38
f 37//38 38//37 40//39 39//40
f 39//40 40//39 42//41 41//42
f 41//42 42//41 44//43 43//44
f 43//44 44//43 46//45 45//46
f 45//46 46//45 48//47 47//48
f 47//48 48//47 50//49 49//50
f 49//50 50//49 52//51 51//52
f 51//52 52//51 54//53 53//54
f 53//54 54//53 56//55 55//56
f 55//56 56//55 58//57 57//58
f 57//58 58//57 60//59 59//60
f 59//60 60//59 62//61 61//62
f 14//13 12//11 70//63 71//64
f 63//65 64//66 2//2 1//1
f 61//62 62//61 64//66 63//65
f 1//1 3//4 5//6 7//8 9//10 11//12 13//14 15//16 17//18 19//20 21//22 23//24 25//26 27//28 29//30 31//32 33//34 35//36 37//38 39//40 41//42 43//44 45//46 47//48 49//50 51//52 53//54 55//56 57//58 59//60 61//62 63//65
f 80//67 79//68 111//69 112//70
f 32//31 30//29 79//68 80//67
f 50//49 48//47 88//71 89//72
f 6//5 4//3 65//73 67//74
f 24//23 22//21 75//75 76//76
f 42//41 40//39 84//77 85//78
f 60//59 58//57 93//79 94//80
f 16//15 14//13 71//64 72//81
f 34//33 32//31 80//67 81//82
f 52//51 50//49 89//72 90//83
f 8//7 6//5 67//74 68//84
f 26//25 24//23 76//76 77//85
f 44//43 42//41 85//78 86//86
f 62//61 60//59 94//80 95//87
f 18//17 16//15 72//81 73//88
f 36//35 34//33 81//82 82//89
f 54//53 52//51 90//83 91//90
f 10//9 8//7 68//84 69//91
f 28//27 26//25 77//85 78//92
f 46//45 44//43 86//86 87//93
f 64//66 62//61 95//87 96//94
f 20//19 18//17 73//88 74//95
f 38//37 36//35 82//89 83//96
f 56//55 54//53 91//90 92//97
f 12//11 10//9 69//91 70//63
f 30//29 28//27 78//92 79//68
f 48//47 46//45 87//93 88//71
f 4//3 2//2 66//98 65//73
f 2//2 64//66 96//94 66//98
f 22//21 20//19 74//95 75//75
f 40//39 38//37 83//96 84//77
f 58//57 56//55 92//97 93//79
f 115//99 114//100 146//101 147//102
f 67//74 65//73 97//103 99//104
f 94//80 93//79 125//105 126//106
f 81//82 80//67 112//70 113//107
f 68//84 67//74 99//104 100//108
f 95//87 94//80 126//106 127//109
f 82//89 81//82 113//107 114//100
f 69//91 68//84 100//108 101//110
f 96//94 95//87 127//109 128//111
f 83//96 82//89 114//100 115//99
f 70//63 69//91 101//110 102//112
f 66//98 96//94 128//111 98//113
f 84//77 83//96 115//99 116//114
f 71//64 70//63 102//112 103//115
f 85//78 84//77 116//114 117//116
f 72//81 71//64 103//115 104//117
f 86//86 85//78 117//116 118//118
f 73//88 72//81 104//117 105//119
f 87//93 86//86 118//118 119//120
f 74//95 73//88 105//119 106//121
f 88//71 87//93 119//120 120//122
f 75//75 74//95 106//121 107//123
f 89//72 88//71 120//122 121//124
f 76//76 75//75 107//123 108//125
f 90//83 89//72 121//124 122//126
f 77//85 76//76 108//125 109//127
f 91//90 90//83 122//126 123//128
f 78//92 77//85 109//127 110//129
f 92//97 91//90 123//128 124//130
f 79//68 78//92 110//129 111//69
f 65//73 66//98 98//113 97//103
f 93//79 92//97 124//130 125//105
f 150//131 149//132 181//133 182//134
f 102//112 101//110 133//135 134//136
f 98//113 128//111 160//137 130//138
f 116//114 115//99 147//102 148//139
f 103//115 102//112 134//136 135//140
f 117//116 116//114 148//139 149//132
f 104//117 103//115 135//140 136//141
f 118//118 117//116 149//132 150//131
f 105//119 104//117 136//141 137//142
f 119//120 118//118 150//131 151//143
f 106//121 105//119 137//142 138//144
f 120//122 119//120 151//143 152//145
f 107//123 106//121 138//144 139//146
f 121//124 120//122 152//145 153//147
f 108//125 107//123 139//146 140//148
f 122//126 121//124 153//147 154//149
f 109//127 108//125 140//148 141//150
f 123//128 122//126 154//149 155//151
f 110//129 109//127 141//150 142//152
f 124//130 123//128 155//151 156//153
f 111//69 110//129 142//152 143//154
f 97//103 98//113 130//138 129//155
f 125//105 124//130 156//153 157//156
f 112//70 111//69 143//154 144//157
f 99//104 97//103 129//155 131//158
f 126//106 125//105 157//156 158//159
f 113//107 112//70 144//157 145//160
f 127//109 126//106 158//159 159//161
f 114//100 113//107 145//160 146//101
f 101//110 100//108 132//162 133//135
f 128//111 127//109 159//161 160//137
f 185//163 184//164 216//165 217//166
f 137//142 136//141 168//167 169//168
f 151//143 150//131 182//134 183//169
f 138//144 137//142 169//168 170//170
f 152//145 151//143 183//169 184//164
f 139//146 138//144 170//170 171//171
f 153//147 152//145 184//164 185//163
f 140//148 139//146 171//171 172//172
f 154//149 153//147 185//163 186//173
f 141//150 140//148 172//172 173//174
f 155//151 154//149 186//173 187//175
f 142//152 141//150 173//174 174//176
f 156//153 155//151 187//175 188//177
f 143//154 142//152 174//176 175//178
f 129//155 130//138 162//179 161//180
f 157//156 156//153 188//177 189//181
f 144//157 143//154 175//178 176//182
f 131//158 129//155 161//180 163//183
f 158//159 157//156 189//181 190//184
f 145//160 144//157 176//182 177//185
f 132//162 131//158 163//183 164//186
f 159//161 158//159 190//184 191//187
f 146//101 145//160 177//185 178//188
f 133//135 132//162 164//186 165//189
f 160//137 159//161 191//187 192//190
f 147//102 146//101 178//188 179//191
f 134//136 133//135 165//189 166//192
f 130//138 160//137 192//190 162//179
f 148//139 147//102 179//191 180//193
f 135//140 134//136 166//192 167//194
f 149//132 148//139 180//193 181//133
f 136//141 135//140 167//194 168//167
f 220//195 219//196 251//197 252//198
f 172//172 171//171 203//199 204//200
f 186//173 185//163 217//166 218//201
f 173//174 172//172 204//200 205//202
f 187//175 186//173 218//201 219//196
f 174//176 173//174 205//202 206//203
f 188//177 187//175 219//196 220//195
f 175//178 174//176 206//203 207//204
f 161//180 162//179 194//205 193//206
f 189//181 188//177 220//195 221//207
f 176//182 175//178 207//204 208//208
f 163//183 161//180 193//206 195//209
f 190//184 189//181 221//207 222//210
f 177//185 176//182 208//208 209//211
f 164//186 163//183 195//209 196//212
f 191//187 190//184 222//210 223//213
f 178//188 177//185 209//211 210//214
f 165//189 164//186 196//212 197//215
f 192//190 191//187 223//213 224//216
f 179//191 178//188 210//214 211//217
f 166//192 165//189 197//215 198//218
f 162//179 192//190 224//216 194//205
f 180//193 179//191 211//217 212//219
f 167//194 166//192 198//218 199//220
f 181//133 180//193 212//219 213//221
f 168//167 167//194 199//220 200//222
f 182//134 181//133 213//221 214//223
f 169//168 168//167 200//222 201//224
f 183//169 182//134 214//223 215//225
f 170//170 169//168 201//224 202//226
f 184//164 183//169 215//225 216//165
f 171//171 170//170 202//226 203//199
f 225//227 226//228 256//229 255//230 254//231 253//232 252//198 251//197 250//233 249//234 248//235 247//236 246//237 245//238 244//239 243//240 242//241 241//242 240//243 239//244 238//245 237//246 236//247 235//248 234//249 233//250 232//251 231//252 230//253 229//254 228//255 227//256
f 207//204 206//203 238//245 239//244
f 193//206 194//205 226//228 225//227
f 221//207 220//195 252//198 253//232
f 208//208 207//204 239//244 240//243
f 195//209 193//206 225//227 227//256
f 222//210 221//207 253//232 254//231
f 209//211 208//208 240//243 241//242
f 196//212 195//209 227//256 228//255
f 223//213 222//210 254//231 255//230
f 210//214 209//211 241//242 242//241
f 197//215 196//212 228//255 229//254
f 224//216 223//213 255//230 256//229
f 211//217 210//214 242//241 243//240
f 198//218 197//215 229//254 230//253
f 194//205 224//216 256//229 226//228
f 212//219 211//217 243//240 244//239
f 199//220 198//218 230//253 231//252
f 213//221 212//219 244//239 245//238
f 200//222 199//220 231//252 232//251
f 214//223 213//221 245//238 246//237
f 201//224 200//222 232//251 233//250
f 215//225 214//223 246//237 247//236
f 202//226 201//224 233//250 234//249
f 216//165 215//225 247//236 248//235
f 203//199 202//226 234//249 235//248
f 217//166 216//165 248//235 249//234
f 204//200 203//199 235//248 236//247
f 218//201 217//166 249//234 250//233
f 205//202 204//200 236//247 237//246
f 219//196 218//201 250//233 251//197
f 206//203 205//202 237//246 238//245
f 99//104 131//158 132//162 100//108
