# Blender v2.76 (sub 0) OBJ File: ''
# www.blender.org
mtllib plate.mtl
o Cylinder
v 0.102581 0.178056 -0.515709
v 0.000000 0.178056 -0.525812
v 0.201220 0.178056 -0.485787
v 0.292125 0.178056 -0.437197
v 0.371805 0.178056 -0.371805
v 0.437197 0.178056 -0.292125
v 0.485787 0.178056 -0.201219
v 0.515709 0.178056 -0.102581
v 0.525812 0.178056 0.000000
v 0.515709 0.178056 0.102581
v 0.485787 0.178056 0.201220
v 0.437197 0.178056 0.292126
v 0.371805 0.178056 0.371805
v 0.292125 0.178056 0.437197
v 0.201219 0.178056 0.485787
v 0.102581 0.178056 0.515709
v -0.000000 0.178056 0.525812
v -0.102581 0.178056 0.515709
v -0.201220 0.178056 0.485787
v -0.292126 0.178056 0.437197
v -0.371806 0.178056 0.371805
v -0.437197 0.178056 0.292125
v -0.485787 0.178056 0.201219
v -0.515709 0.178056 0.102581
v -0.525812 0.178056 -0.000000
v -0.515709 0.178056 -0.102581
v -0.485787 0.178056 -0.201220
v -0.437196 0.178056 -0.292126
v -0.371805 0.178056 -0.371806
v -0.292125 0.178056 -0.437197
v -0.201219 0.178056 -0.485787
v -0.102580 0.178056 -0.515709
v 0.111854 0.250646 -0.562330
v 0.000000 0.250646 -0.573347
v 0.219410 0.250646 -0.529703
v 0.318534 0.250646 -0.476720
v 0.405417 0.250646 -0.405417
v 0.476720 0.250646 -0.318534
v 0.529703 0.250646 -0.219410
v 0.562330 0.250646 -0.111854
v 0.573346 0.250646 0.000000
v 0.562330 0.250646 0.111854
v 0.529703 0.250646 0.219410
v 0.476720 0.250646 0.318535
v 0.405417 0.250646 0.405418
v 0.318534 0.250646 0.476721
v 0.219410 0.250646 0.529704
v 0.111854 0.250646 0.562330
v -0.000000 0.250646 0.573347
v -0.111855 0.250646 0.562330
v -0.219411 0.250646 0.529703
v -0.318535 0.250646 0.476720
v -0.405418 0.250646 0.405417
v -0.476721 0.250646 0.318534
v -0.529704 0.250646 0.219410
v -0.562330 0.250646 0.111854
v -0.573347 0.250646 -0.000000
v -0.562330 0.250646 -0.111855
v -0.529703 0.250646 -0.219411
v -0.476720 0.250646 -0.318535
v -0.405417 0.250646 -0.405418
v -0.318534 0.250646 -0.476721
v -0.219410 0.250646 -0.529704
v -0.111854 0.250646 -0.562330
v 0.143854 0.284071 -0.723203
v 0.000000 0.284071 -0.737372
v 0.282180 0.284071 -0.681243
v 0.409662 0.284071 -0.613102
v 0.521401 0.284071 -0.521400
v 0.613102 0.284071 -0.409662
v 0.681243 0.284071 -0.282180
v 0.723203 0.284071 -0.143854
v 0.737372 0.284071 0.000000
v 0.723203 0.284071 0.143854
v 0.681243 0.284071 0.282180
v 0.613102 0.284071 0.409662
v 0.521401 0.284071 0.521401
v 0.409662 0.284071 0.613103
v 0.282180 0.284071 0.681243
v 0.143854 0.284071 0.723204
v -0.000000 0.284071 0.737372
v -0.143854 0.284071 0.723204
v -0.282180 0.284071 0.681243
v -0.409662 0.284071 0.613102
v -0.521401 0.284071 0.521401
v -0.613103 0.284071 0.409662
v -0.681243 0.284071 0.282180
v -0.723204 0.284071 0.143854
v -0.737372 0.284071 -0.000001
v -0.723203 0.284071 -0.143855
v -0.681242 0.284071 -0.282180
v -0.613102 0.284071 -0.409662
v -0.521400 0.284071 -0.521401
v -0.409661 0.284071 -0.613103
v -0.282179 0.284071 -0.681243
v -0.143853 0.284071 -0.723203
v 0.118570 0.285432 -0.596093
v 0.000000 0.285432 -0.607771
v 0.232584 0.285432 -0.561507
v 0.337660 0.285432 -0.505343
v 0.429759 0.285432 -0.429759
v 0.505343 0.285432 -0.337660
v 0.561507 0.285432 -0.232584
v 0.596093 0.285432 -0.118570
v 0.607771 0.285432 0.000000
v 0.596093 0.285432 0.118570
v 0.561507 0.285432 0.232584
v 0.505343 0.285432 0.337660
v 0.429759 0.285432 0.429759
v 0.337660 0.285432 0.505344
v 0.232584 0.285432 0.561508
v 0.118570 0.285432 0.596093
v -0.000000 0.285432 0.607772
v -0.118571 0.285432 0.596093
v -0.232584 0.285432 0.561508
v -0.337660 0.285432 0.505344
v -0.429760 0.285432 0.429759
v -0.505344 0.285432 0.337660
v -0.561508 0.285432 0.232584
v -0.596093 0.285432 0.118570
v -0.607771 0.285432 -0.000000
v -0.596093 0.285432 -0.118571
v -0.561507 0.285432 -0.232584
v -0.505343 0.285432 -0.337660
v -0.429759 0.285432 -0.429760
v -0.337659 0.285432 -0.505344
v -0.232583 0.285432 -0.561508
v -0.118570 0.285432 -0.596093
v 0.092818 0.188552 -0.466627
v 0.000000 0.188552 -0.475769
v 0.182069 0.188552 -0.439553
v 0.264323 0.188552 -0.395587
v 0.336419 0.188552 -0.336419
v 0.395588 0.188552 -0.264323
v 0.439553 0.188552 -0.182069
v 0.466627 0.188552 -0.092818
v 0.475769 0.188552 0.000000
v 0.466627 0.188552 0.092818
v 0.439553 0.188552 0.182069
v 0.395588 0.188552 0.264323
v 0.336419 0.188552 0.336420
v 0.264323 0.188552 0.395588
v 0.182069 0.188552 0.439553
v 0.092818 0.188552 0.466627
v -0.000000 0.188552 0.475769
v -0.092818 0.188552 0.466627
v -0.182069 0.188552 0.439553
v -0.264323 0.188552 0.395588
v -0.336420 0.188552 0.336419
v -0.395588 0.188552 0.264323
v -0.439554 0.188552 0.182069
v -0.466627 0.188552 0.092818
v -0.475769 0.188552 -0.000000
v -0.466627 0.188552 -0.092818
v -0.439553 0.188552 -0.182069
v -0.395587 0.188552 -0.264323
v -0.336419 0.188552 -0.336420
v -0.264323 0.188552 -0.395588
v -0.182068 0.188552 -0.439553
v -0.092817 0.188552 -0.466627
vn -0.243200 -0.546000 0.801700
vn -0.155100 -0.979700 0.127300
vn 0.647600 -0.546000 -0.531500
vn -0.082100 -0.546000 -0.833800
vn -0.394900 -0.546000 0.738900
vn 0.738900 -0.546000 -0.394900
vn -0.531500 -0.546000 0.647600
vn 0.801700 -0.546000 -0.243200
vn -0.647600 -0.546000 0.531500
vn 0.833800 -0.546000 -0.082100
vn -0.738900 -0.546000 0.394900
vn 0.833800 -0.546000 0.082100
vn -0.801700 -0.546000 0.243200
vn 0.801700 -0.546000 0.243200
vn -0.833800 -0.546000 0.082100
vn 0.738900 -0.546000 0.394900
vn -0.833800 -0.546000 -0.082100
vn 0.647600 -0.546000 0.531500
vn -0.801700 -0.546000 -0.243200
vn 0.531500 -0.546000 0.647600
vn -0.738900 -0.546000 -0.394900
vn 0.394900 -0.546000 0.738900
vn 0.082100 -0.546000 -0.833800
vn -0.647600 -0.546000 -0.531500
vn 0.243200 -0.546000 0.801700
vn 0.243200 -0.546000 -0.801700
vn -0.531500 -0.546000 -0.647600
vn 0.082100 -0.546000 0.833800
vn -0.394900 -0.546000 -0.738900
vn -0.082100 -0.546000 0.833800
vn 0.531500 -0.546000 -0.647600
vn -0.243200 -0.546000 -0.801700
vn -0.010500 0.999900 0.001000
vn 0.199600 -0.979700 -0.019700
vn -0.176900 -0.979700 0.094600
vn 0.199600 -0.979700 0.019700
vn -0.192000 -0.979700 0.058200
vn 0.192000 -0.979700 0.058200
vn -0.199600 -0.979700 0.019700
vn 0.176900 -0.979700 0.094600
vn -0.199600 -0.979700 -0.019700
vn 0.155100 -0.979700 0.127300
vn -0.192000 -0.979700 -0.058200
vn 0.127300 -0.979700 0.155100
vn -0.176900 -0.979700 -0.094600
vn 0.094600 -0.979700 0.176900
vn 0.019700 -0.979700 -0.199600
vn -0.155100 -0.979700 -0.127300
vn 0.058200 -0.979700 0.192000
vn 0.058200 -0.979700 -0.192000
vn -0.127300 -0.979700 -0.155100
vn 0.019700 -0.979700 0.199600
vn 0.094600 -0.979700 -0.176900
vn -0.094600 -0.979700 -0.176900
vn -0.019700 -0.979700 0.199600
vn 0.127300 -0.979700 -0.155100
vn -0.058200 -0.979700 -0.192000
vn -0.058200 -0.979700 0.192000
vn 0.155100 -0.979700 -0.127300
vn -0.019700 -0.979700 -0.199600
vn -0.094600 -0.979700 0.176900
vn 0.176900 -0.979700 -0.094600
vn -0.127300 -0.979700 0.155100
vn 0.192000 -0.979700 -0.058200
vn 0.523400 0.804800 0.279800
vn 0.009300 0.999900 0.005000
vn -0.010500 0.999900 -0.001000
vn 0.008200 0.999900 0.006700
vn -0.010100 0.999900 -0.003100
vn 0.006700 0.999900 0.008200
vn -0.009300 0.999900 -0.005000
vn 0.005000 0.999900 0.009300
vn 0.001000 0.999900 -0.010500
vn -0.008200 0.999900 -0.006700
vn 0.003100 0.999900 0.010100
vn 0.003100 0.999900 -0.010100
vn -0.006700 0.999900 -0.008200
vn 0.001000 0.999900 0.010500
vn 0.005000 0.999900 -0.009300
vn -0.005000 0.999900 -0.009300
vn -0.001000 0.999900 0.010500
vn 0.006700 0.999900 -0.008200
vn -0.003100 0.999900 -0.010100
vn -0.003100 0.999900 0.010100
vn 0.008200 0.999900 -0.006700
vn -0.001000 0.999900 -0.010500
vn -0.005000 0.999900 0.009300
vn 0.009300 0.999900 -0.005000
vn -0.006700 0.999900 0.008200
vn 0.010100 0.999900 -0.003100
vn -0.008200 0.999900 0.006700
vn 0.010500 0.999900 -0.001000
vn -0.009300 0.999900 0.005000
vn 0.010500 0.999900 0.001000
vn -0.010100 0.999900 0.003100
vn 0.010100 0.999900 0.003100
vn 0.000000 1.000000 0.000000
vn -0.279800 0.804800 -0.523400
vn -0.058200 0.804800 0.590700
vn 0.458800 0.804800 0.376500
vn -0.172300 0.804800 -0.568000
vn -0.172300 0.804800 0.568000
vn 0.376500 0.804800 0.458800
vn -0.058200 0.804800 -0.590700
vn -0.279800 0.804800 0.523400
vn 0.279800 0.804800 0.523400
vn 0.058200 0.804800 -0.590700
vn -0.376500 0.804800 0.458800
vn 0.172300 0.804800 0.568000
vn 0.172300 0.804800 -0.568000
vn -0.458800 0.804800 0.376500
vn 0.058200 0.804800 0.590700
vn 0.279800 0.804800 -0.523400
vn -0.523400 0.804800 0.279800
vn 0.376500 0.804800 -0.458800
vn -0.568000 0.804800 0.172300
vn 0.458800 0.804800 -0.376500
vn -0.590700 0.804800 0.058200
vn 0.523400 0.804800 -0.279800
vn -0.590700 0.804800 -0.058200
vn 0.568000 0.804800 -0.172300
vn -0.568000 0.804800 -0.172300
vn 0.590700 0.804800 -0.058200
vn -0.523400 0.804800 -0.279800
vn 0.590700 0.804800 0.058200
vn -0.458800 0.804800 -0.376500
vn 0.568000 0.804800 0.172300
vn -0.376500 0.804800 -0.458800
vn 0.394900 -0.546000 -0.738900
usemtl None
s off
f 19//1 18//1 50//1 51//1
f 54//2 53//2 85//2 86//2
f 6//3 5//3 37//3 38//3
f 2//4 32//4 64//4 34//4
f 20//5 19//5 51//5 52//5
f 7//6 6//6 38//6 39//6
f 21//7 20//7 52//7 53//7
f 8//8 7//8 39//8 40//8
f 22//9 21//9 53//9 54//9
f 9//10 8//10 40//10 41//10
f 23//11 22//11 54//11 55//11
f 10//12 9//12 41//12 42//12
f 24//13 23//13 55//13 56//13
f 11//14 10//14 42//14 43//14
f 25//15 24//15 56//15 57//15
f 12//16 11//16 43//16 44//16
f 26//17 25//17 57//17 58//17
f 13//18 12//18 44//18 45//18
f 27//19 26//19 58//19 59//19
f 14//20 13//20 45//20 46//20
f 28//21 27//21 59//21 60//21
f 15//22 14//22 46//22 47//22
f 1//23 2//23 34//23 33//23
f 29//24 28//24 60//24 61//24
f 16//25 15//25 47//25 48//25
f 3//26 1//26 33//26 35//26
f 30//27 29//27 61//27 62//27
f 17//28 16//28 48//28 49//28
f 31//29 30//29 62//29 63//29
f 18//30 17//30 49//30 50//30
f 5//31 4//31 36//31 37//31
f 32//32 31//32 63//32 64//32
f 89//33 88//33 120//33 121//33
f 41//34 40//34 72//34 73//34
f 55//35 54//35 86//35 87//35
f 42//36 41//36 73//36 74//36
f 56//37 55//37 87//37 88//37
f 43//38 42//38 74//38 75//38
f 57//39 56//39 88//39 89//39
f 44//40 43//40 75//40 76//40
f 58//41 57//41 89//41 90//41
f 45//42 44//42 76//42 77//42
f 59//43 58//43 90//43 91//43
f 46//44 45//44 77//44 78//44
f 60//45 59//45 91//45 92//45
f 47//46 46//46 78//46 79//46
f 33//47 34//47 66//47 65//47
f 61//48 60//48 92//48 93//48
f 48//49 47//49 79//49 80//49
f 35//50 33//50 65//50 67//50
f 62//51 61//51 93//51 94//51
f 49//52 48//52 80//52 81//52
f 36//53 35//53 67//53 68//53
f 63//54 62//54 94//54 95//54
f 50//55 49//55 81//55 82//55
f 37//56 36//56 68//56 69//56
f 64//57 63//57 95//57 96//57
f 51//58 50//58 82//58 83//58
f 38//59 37//59 69//59 70//59
f 34//60 64//60 96//60 66//60
f 52//61 51//61 83//61 84//61
f 39//62 38//62 70//62 71//62
f 53//63 52//63 84//63 85//63
f 40//64 39//64 71//64 72//64
f 124//65 123//65 155//65 156//65
f 76//66 75//66 107//66 108//66
f 90//67 89//67 121//67 122//67
f 77//68 76//68 108//68 109//68
f 91//69 90//69 122//69 123//69
f 78//70 77//70 109//70 110//70
f 92//71 91//71 123//71 124//71
f 79//72 78//72 110//72 111//72
f 65//73 66//73 98//73 97//73
f 93//74 92//74 124//74 125//74
f 80//75 79//75 111//75 112//75
f 67//76 65//76 97//76 99//76
f 94//77 93//77 125//77 126//77
f 81//78 80//78 112//78 113//78
f 68//79 67//79 99//79 100//79
f 95//80 94//80 126//80 127//80
f 82//81 81//81 113//81 114//81
f 69//82 68//82 100//82 101//82
f 96//83 95//83 127//83 128//83
f 83//84 82//84 114//84 115//84
f 70//85 69//85 101//85 102//85
f 66//86 96//86 128//86 98//86
f 84//87 83//87 115//87 116//87
f 71//88 70//88 102//88 103//88
f 85//89 84//89 116//89 117//89
f 72//90 71//90 103//90 104//90
f 86//91 85//91 117//91 118//91
f 73//92 72//92 104//92 105//92
f 87//93 86//93 118//93 119//93
f 74//94 73//94 105//94 106//94
f 88//95 87//95 119//95 120//95
f 75//96 74//96 106//96 107//96
f 129//97 130//97 160//97 159//97 158//97 157//97 156//97 155//97 154//97 153//97 152//97 151//97 150//97 149//97 148//97 147//97 146//97 145//97 144//97 143//97 142//97 141//97 140//97 139//97 138//97 137//97 136//97 135//97 134//97 133//97 132//97 131//97
f 111//98 110//98 142//98 143//98
f 97//99 98//99 130//99 129//99
f 125//100 124//100 156//100 157//100
f 112//101 111//101 143//101 144//101
f 99//102 97//102 129//102 131//102
f 126//103 125//103 157//103 158//103
f 113//104 112//104 144//104 145//104
f 100//105 99//105 131//105 132//105
f 127//106 126//106 158//106 159//106
f 114//107 113//107 145//107 146//107
f 101//108 100//108 132//108 133//108
f 128//109 127//109 159//109 160//109
f 115//110 114//110 146//110 147//110
f 102//111 101//111 133//111 134//111
f 98//112 128//112 160//112 130//112
f 116//113 115//113 147//113 148//113
f 103//114 102//114 134//114 135//114
f 117//115 116//115 148//115 149//115
f 104//116 103//116 135//116 136//116
f 118//117 117//117 149//117 150//117
f 105//118 104//118 136//118 137//118
f 119//119 118//119 150//119 151//119
f 106//120 105//120 137//120 138//120
f 120//121 119//121 151//121 152//121
f 107//122 106//122 138//122 139//122
f 121//123 120//123 152//123 153//123
f 108//124 107//124 139//124 140//124
f 122//125 121//125 153//125 154//125
f 109//126 108//126 140//126 141//126
f 123//127 122//127 154//127 155//127
f 110//128 109//128 141//128 142//128
f 3//129 35//129 36//129 4//129
