# Blender v2.76 (sub 0) OBJ File: ''
# www.blender.org
mtllib trashcan.mtl
o Cylinder
v 0.000000 0.192398 -0.453920
v 0.000000 0.354461 -0.384394
v 0.088555 0.192398 -0.445198
v 0.074992 0.354461 -0.377008
v 0.173708 0.192398 -0.419367
v 0.147101 0.354461 -0.355134
v 0.252184 0.192398 -0.377420
v 0.213558 0.354461 -0.319612
v 0.320970 0.192398 -0.320970
v 0.271808 0.354461 -0.271807
v 0.377420 0.192398 -0.252184
v 0.319612 0.354461 -0.213558
v 0.419367 0.192398 -0.173707
v 0.355134 0.354461 -0.147101
v 0.445198 0.192398 -0.088555
v 0.377008 0.354461 -0.074991
v 0.453920 0.192398 0.000000
v 0.384394 0.354461 0.000000
v 0.445198 0.192398 0.088555
v 0.377008 0.354461 0.074992
v 0.419367 0.192398 0.173708
v 0.355134 0.354461 0.147101
v 0.377420 0.192398 0.252184
v 0.319612 0.354461 0.213558
v 0.320970 0.192398 0.320970
v 0.271808 0.354461 0.271808
v 0.252184 0.192398 0.377421
v 0.213558 0.354461 0.319612
v 0.173707 0.192398 0.419367
v 0.147101 0.354461 0.355134
v 0.088555 0.192398 0.445198
v 0.074991 0.354461 0.377008
v -0.000000 0.192398 0.453920
v -0.000000 0.354461 0.384394
v -0.088556 0.192398 0.445198
v -0.074992 0.354461 0.377008
v -0.173708 0.192398 0.419367
v -0.147101 0.354461 0.355134
v -0.252184 0.192398 0.377420
v -0.213558 0.354461 0.319612
v -0.320970 0.192398 0.320970
v -0.271808 0.354461 0.271807
v -0.377421 0.192398 0.252184
v -0.319612 0.354461 0.213558
v -0.419367 0.192398 0.173707
v -0.355134 0.354461 0.147101
v -0.445198 0.192398 0.088555
v -0.377008 0.354461 0.074991
v -0.453920 0.192398 -0.000000
v -0.384394 0.354461 -0.000000
v -0.445198 0.192398 -0.088556
v -0.377008 0.354461 -0.074992
v -0.419367 0.192398 -0.173708
v -0.355134 0.354461 -0.147102
v -0.377420 0.192398 -0.252185
v -0.319612 0.354461 -0.213558
v -0.320969 0.192398 -0.320970
v -0.271807 0.354461 -0.271808
v -0.252184 0.192398 -0.377421
v -0.213557 0.354461 -0.319612
v -0.173707 0.192398 -0.419367
v -0.147101 0.354461 -0.355134
v -0.088555 0.192398 -0.445198
v -0.074991 0.354461 -0.377008
v 0.073364 0.546808 -0.368826
v 0.000000 0.546808 -0.376052
v 0.143909 0.546808 -0.347426
v 0.208923 0.546808 -0.312676
v 0.265909 0.546808 -0.265909
v 0.312676 0.546808 -0.208923
v 0.347426 0.546808 -0.143909
v 0.368826 0.546808 -0.073364
v 0.376052 0.546808 0.000000
v 0.368826 0.546808 0.073364
v 0.347426 0.546808 0.143909
v 0.312676 0.546808 0.208923
v 0.265909 0.546808 0.265909
v 0.208923 0.546808 0.312676
v 0.143909 0.546808 0.347427
v 0.073364 0.546808 0.368826
v -0.000000 0.546808 0.376052
v -0.073364 0.546808 0.368826
v -0.143909 0.546808 0.347427
v -0.208923 0.546808 0.312676
v -0.265909 0.546808 0.265909
v -0.312676 0.546808 0.208923
v -0.347427 0.546808 0.143909
v -0.368826 0.546808 0.073364
v -0.376052 0.546808 -0.000000
v -0.368826 0.546808 -0.073364
v -0.347426 0.546808 -0.143909
v -0.312675 0.546808 -0.208923
v -0.265908 0.546808 -0.265909
v -0.208923 0.546808 -0.312676
v -0.143908 0.546808 -0.347427
v -0.073364 0.546808 -0.368826
v 0.085223 0.703059 -0.428444
v 0.000000 0.703059 -0.436837
v 0.167170 0.703059 -0.403585
v 0.242694 0.703059 -0.363217
v 0.308891 0.703059 -0.308891
v 0.363217 0.703059 -0.242694
v 0.403585 0.703059 -0.167170
v 0.428444 0.703059 -0.085223
v 0.436837 0.703059 0.000000
v 0.428444 0.703059 0.085223
v 0.403585 0.703059 0.167170
v 0.363217 0.703059 0.242694
v 0.308891 0.703059 0.308891
v 0.242694 0.703059 0.363217
v 0.167170 0.703059 0.403585
v 0.085223 0.703059 0.428444
v -0.000000 0.703059 0.436838
v -0.085223 0.703059 0.428444
v -0.167171 0.703059 0.403585
v -0.242694 0.703059 0.363217
v -0.308891 0.703059 0.308891
v -0.363217 0.703059 0.242694
v -0.403585 0.703059 0.167170
v -0.428444 0.703059 0.085222
v -0.436838 0.703059 -0.000000
v -0.428444 0.703059 -0.085223
v -0.403585 0.703059 -0.167171
v -0.363217 0.703059 -0.242694
v -0.308890 0.703059 -0.308891
v -0.242693 0.703059 -0.363217
v -0.167170 0.703059 -0.403585
v -0.085222 0.703059 -0.428444
v 0.092927 0.851817 -0.467176
v 0.000000 0.851817 -0.476329
v 0.182283 0.851817 -0.440070
v 0.264634 0.851817 -0.396053
v 0.336815 0.851817 -0.336815
v 0.396053 0.851817 -0.264634
v 0.440070 0.851817 -0.182283
v 0.467176 0.851817 -0.092927
v 0.476328 0.851817 0.000000
v 0.467176 0.851817 0.092927
v 0.440070 0.851817 0.182283
v 0.396053 0.851817 0.264634
v 0.336815 0.851817 0.336815
v 0.264634 0.851817 0.396053
v 0.182283 0.851817 0.440070
v 0.092927 0.851817 0.467176
v -0.000000 0.851817 0.476329
v -0.092927 0.851817 0.467176
v -0.182283 0.851817 0.440070
v -0.264634 0.851817 0.396053
v -0.336816 0.851817 0.336815
v -0.396053 0.851817 0.264634
v -0.440071 0.851817 0.182283
v -0.467176 0.851817 0.092927
v -0.476329 0.851817 -0.000000
v -0.467176 0.851817 -0.092928
v -0.440070 0.851817 -0.182283
v -0.396053 0.851817 -0.264634
v -0.336815 0.851817 -0.336816
v -0.264634 0.851817 -0.396053
v -0.182283 0.851817 -0.440071
v -0.092927 0.851817 -0.467176
v 0.094527 1.004925 -0.475218
v 0.000000 1.004925 -0.484528
v 0.185421 1.004925 -0.447646
v 0.269189 1.004925 -0.402870
v 0.342613 1.004925 -0.342613
v 0.402870 1.004925 -0.269189
v 0.447646 1.004925 -0.185421
v 0.475218 1.004925 -0.094527
v 0.484528 1.004925 0.000000
v 0.475218 1.004925 0.094527
v 0.447646 1.004925 0.185421
v 0.402870 1.004925 0.269189
v 0.342613 1.004925 0.342613
v 0.269189 1.004925 0.402871
v 0.185421 1.004925 0.447646
v 0.094527 1.004925 0.475218
v -0.000000 1.004925 0.484528
v -0.094527 1.004925 0.475218
v -0.185421 1.004925 0.447646
v -0.269190 1.004925 0.402870
v -0.342613 1.004925 0.342613
v -0.402871 1.004925 0.269189
v -0.447646 1.004925 0.185421
v -0.475218 1.004925 0.094526
v -0.484528 1.004925 -0.000000
v -0.475218 1.004925 -0.094527
v -0.447645 1.004925 -0.185421
v -0.402870 1.004925 -0.269190
v -0.342613 1.004925 -0.342613
v -0.269189 1.004925 -0.402871
v -0.185420 1.004925 -0.447646
v -0.094526 1.004925 -0.475218
v 0.086851 1.004925 -0.436630
v 0.000000 1.004925 -0.445185
v 0.170365 1.004925 -0.411297
v 0.247331 1.004925 -0.370157
v 0.314793 1.004925 -0.314793
v 0.370158 1.004925 -0.247331
v 0.411297 1.004925 -0.170365
v 0.436630 1.004925 -0.086851
v 0.445184 1.004925 0.000000
v 0.436630 1.004925 0.086851
v 0.411297 1.004925 0.170365
v 0.370158 1.004925 0.247331
v 0.314793 1.004925 0.314793
v 0.247331 1.004925 0.370158
v 0.170365 1.004925 0.411297
v 0.086851 1.004925 0.436631
v -0.000000 1.004925 0.445185
v -0.086851 1.004925 0.436631
v -0.170365 1.004925 0.411297
v -0.247332 1.004925 0.370158
v -0.314793 1.004925 0.314793
v -0.370158 1.004925 0.247331
v -0.411297 1.004925 0.170365
v -0.436631 1.004925 0.086851
v -0.445185 1.004925 -0.000000
v -0.436630 1.004925 -0.086852
v -0.411297 1.004925 -0.170365
v -0.370157 1.004925 -0.247332
v -0.314793 1.004925 -0.314793
v -0.247331 1.004925 -0.370158
v -0.170364 1.004925 -0.411297
v -0.086851 1.004925 -0.436631
v 0.060963 0.272947 -0.306481
v 0.000000 0.272947 -0.312485
v 0.119583 0.272947 -0.288699
v 0.173608 0.272947 -0.259822
v 0.220961 0.272947 -0.220961
v 0.259822 0.272947 -0.173608
v 0.288699 0.272947 -0.119583
v 0.306481 0.272947 -0.060963
v 0.312485 0.272947 0.000000
v 0.306481 0.272947 0.060963
v 0.288699 0.272947 0.119583
v 0.259822 0.272947 0.173608
v 0.220961 0.272947 0.220961
v 0.173608 0.272947 0.259822
v 0.119583 0.272947 0.288699
v 0.060963 0.272947 0.306481
v -0.000000 0.272947 0.312485
v -0.060963 0.272947 0.306481
v -0.119583 0.272947 0.288699
v -0.173608 0.272947 0.259822
v -0.220961 0.272947 0.220960
v -0.259822 0.272947 0.173607
v -0.288699 0.272947 0.119583
v -0.306481 0.272947 0.060963
v -0.312485 0.272947 -0.000000
v -0.306481 0.272947 -0.060963
v -0.288699 0.272947 -0.119583
v -0.259822 0.272947 -0.173608
v -0.220960 0.272947 -0.220961
v -0.173607 0.272947 -0.259822
v -0.119583 0.272947 -0.288699
v -0.060963 0.272947 -0.306481
vn 0.000000 -0.527600 -0.849500
vn 0.000000 0.224900 -0.974400
vn 0.190100 0.224900 -0.955700
vn 0.165700 -0.527600 -0.833100
vn 0.372900 0.224900 -0.900200
vn 0.325100 -0.527600 -0.784800
vn 0.541300 0.224900 -0.810100
vn 0.471900 -0.527600 -0.706300
vn 0.689000 0.224900 -0.689000
vn 0.600700 -0.527600 -0.600700
vn 0.810100 0.224900 -0.541300
vn 0.706300 -0.527600 -0.471900
vn 0.900200 0.224900 -0.372900
vn 0.784800 -0.527600 -0.325100
vn 0.955700 0.224900 -0.190100
vn 0.833100 -0.527600 -0.165700
vn 0.974400 0.224900 0.000000
vn 0.849500 -0.527600 0.000000
vn 0.955700 0.224900 0.190100
vn 0.833100 -0.527600 0.165700
vn 0.900200 0.224900 0.372900
vn 0.784800 -0.527600 0.325100
vn 0.810100 0.224900 0.541300
vn 0.706300 -0.527600 0.471900
vn 0.689000 0.224900 0.689000
vn 0.600700 -0.527600 0.600700
vn 0.541300 0.224900 0.810100
vn 0.471900 -0.527600 0.706300
vn 0.372900 0.224900 0.900200
vn 0.325100 -0.527600 0.784800
vn 0.190100 0.224900 0.955700
vn 0.165700 -0.527600 0.833100
vn 0.000000 0.224900 0.974400
vn 0.000000 -0.527600 0.849500
vn -0.190100 0.224900 0.955700
vn -0.165700 -0.527600 0.833100
vn -0.372900 0.224900 0.900200
vn -0.325100 -0.527600 0.784800
vn -0.541300 0.224900 0.810100
vn -0.471900 -0.527600 0.706300
vn -0.689000 0.224900 0.689000
vn -0.600700 -0.527600 0.600700
vn -0.810100 0.224900 0.541300
vn -0.706300 -0.527600 0.471900
vn -0.900200 0.224900 0.372900
vn -0.784800 -0.527600 0.325100
vn -0.955700 0.224900 0.190100
vn -0.833100 -0.527600 0.165700
vn -0.974400 0.224900 0.000000
vn -0.849500 -0.527600 0.000000
vn -0.955700 0.224900 -0.190100
vn -0.833100 -0.527600 -0.165700
vn -0.900200 0.224900 -0.372900
vn -0.784800 -0.527600 -0.325100
vn -0.810100 0.224900 -0.541300
vn -0.706300 -0.527600 -0.471900
vn -0.689000 0.224900 -0.689000
vn -0.600600 -0.527600 -0.600700
vn -0.541300 0.224900 -0.810100
vn -0.471900 -0.527600 -0.706300
vn -0.372900 0.224900 -0.900200
vn -0.325100 -0.527600 -0.784800
vn 0.820000 -0.165200 -0.547900
vn 0.911200 -0.165200 -0.377400
vn -0.165700 -0.527600 -0.833100
vn -0.190100 0.224900 -0.955700
vn 0.192400 -0.165200 0.967300
vn 0.377400 -0.165200 0.911200
vn 0.363900 -0.309000 0.878600
vn 0.185500 -0.309000 0.932800
vn -0.967300 -0.165200 0.192400
vn -0.986200 -0.165200 0.000000
vn 0.192400 -0.165200 -0.967300
vn 0.377400 -0.165200 -0.911200
vn 0.911200 -0.165200 0.377400
vn 0.820000 -0.165200 0.547900
vn -0.547900 -0.165200 0.820000
vn -0.697400 -0.165200 0.697400
vn -0.697400 -0.165200 -0.697400
vn -0.547900 -0.165200 -0.820000
vn 0.967300 -0.165200 -0.192400
vn 0.000000 -0.165200 0.986200
vn -0.967300 -0.165200 -0.192400
vn 0.547900 -0.165200 -0.820000
vn 0.697400 -0.165200 0.697400
vn -0.820000 -0.165200 0.547900
vn -0.377400 -0.165200 -0.911200
vn 0.986200 -0.165200 0.000000
vn -0.192400 -0.165200 0.967300
vn -0.911200 -0.165200 -0.377400
vn 0.697400 -0.165200 -0.697400
vn 0.547900 -0.165200 0.820000
vn -0.911200 -0.165200 0.377400
vn -0.192400 -0.165200 -0.967300
vn 0.967300 -0.165200 0.192400
vn -0.377400 -0.165200 0.911200
vn -0.820000 -0.165200 -0.547900
vn 0.000000 -0.165200 -0.986200
vn -0.363900 -0.309000 0.878600
vn -0.185500 -0.309000 0.932800
vn -0.192700 -0.154900 0.968900
vn -0.378100 -0.154900 0.912700
vn 0.185500 -0.309000 -0.932800
vn 0.363900 -0.309000 -0.878600
vn -0.672500 -0.309000 -0.672500
vn -0.528400 -0.309000 -0.790800
vn 0.000000 -0.309000 0.951000
vn 0.528400 -0.309000 -0.790800
vn -0.363900 -0.309000 -0.878600
vn 0.672500 -0.309000 -0.672500
vn -0.185500 -0.309000 -0.932800
vn 0.790800 -0.309000 -0.528400
vn 0.000000 -0.309000 -0.951000
vn -0.528400 -0.309000 0.790800
vn 0.878600 -0.309000 -0.363900
vn -0.672500 -0.309000 0.672500
vn 0.932800 -0.309000 -0.185500
vn -0.790800 -0.309000 0.528400
vn 0.951000 -0.309000 0.000000
vn -0.878600 -0.309000 0.363900
vn 0.932800 -0.309000 0.185500
vn -0.932800 -0.309000 0.185500
vn 0.878600 -0.309000 0.363900
vn -0.951000 -0.309000 0.000000
vn 0.790800 -0.309000 0.528400
vn -0.932800 -0.309000 -0.185500
vn 0.672500 -0.309000 0.672500
vn -0.878600 -0.309000 -0.363900
vn 0.528400 -0.309000 0.790800
vn -0.790800 -0.309000 -0.528400
vn -0.821400 -0.154900 0.548800
vn -0.698600 -0.154900 0.698600
vn -0.527400 0.666000 0.527400
vn -0.620200 0.666000 0.414400
vn 0.698600 -0.154900 -0.698600
vn 0.821400 -0.154900 -0.548800
vn -0.192700 -0.154900 -0.968900
vn 0.000000 -0.154900 -0.987900
vn -0.548800 -0.154900 0.821400
vn 0.912700 -0.154900 -0.378100
vn 0.968900 -0.154900 -0.192700
vn 0.987900 -0.154900 0.000000
vn -0.912700 -0.154900 0.378100
vn 0.968900 -0.154900 0.192700
vn -0.968900 -0.154900 0.192700
vn 0.912700 -0.154900 0.378100
vn -0.987900 -0.154900 0.000000
vn 0.821400 -0.154900 0.548800
vn -0.968900 -0.154900 -0.192700
vn 0.698600 -0.154900 0.698600
vn -0.912700 -0.154900 -0.378100
vn 0.548800 -0.154900 0.821400
vn -0.821400 -0.154900 -0.548800
vn 0.378100 -0.154900 0.912700
vn 0.192700 -0.154900 -0.968900
vn -0.698600 -0.154900 -0.698600
vn 0.192700 -0.154900 0.968900
vn 0.378100 -0.154900 -0.912700
vn -0.548800 -0.154900 -0.821400
vn 0.000000 -0.154900 0.987900
vn 0.548800 -0.154900 -0.821400
vn -0.378100 -0.154900 -0.912700
vn -0.745900 0.666000 0.000000
vn -0.731600 0.666000 0.145500
vn 0.604300 0.787600 -0.120200
vn 0.616100 0.787600 0.000000
vn 0.731600 0.666000 -0.145500
vn 0.745900 0.666000 0.000000
vn -0.689100 0.666000 0.285400
vn 0.731600 0.666000 0.145500
vn 0.689100 0.666000 0.285400
vn 0.620200 0.666000 0.414400
vn -0.731600 0.666000 -0.145500
vn 0.527400 0.666000 0.527400
vn -0.689100 0.666000 -0.285400
vn 0.414400 0.666000 0.620200
vn -0.620200 0.666000 -0.414400
vn 0.285400 0.666000 0.689100
vn 0.000000 0.666000 -0.745900
vn 0.145500 0.666100 -0.731600
vn -0.527400 0.666000 -0.527400
vn 0.145500 0.666100 0.731600
vn 0.285400 0.666100 -0.689100
vn -0.414400 0.666000 -0.620200
vn 0.000000 0.666000 0.745900
vn 0.414400 0.666000 -0.620200
vn -0.285400 0.666000 -0.689100
vn -0.145500 0.666000 0.731600
vn 0.527400 0.666000 -0.527400
vn -0.145500 0.666100 -0.731600
vn -0.285400 0.666000 0.689100
vn 0.620200 0.666000 -0.414400
vn -0.414400 0.666000 0.620200
vn 0.689100 0.666000 -0.285400
vn 0.512300 0.787600 0.342300
vn 0.569200 0.787600 0.235800
vn 0.612900 0.748300 0.253900
vn 0.551600 0.748300 0.368500
vn -0.569200 0.787600 -0.235800
vn -0.512300 0.787600 -0.342300
vn 0.604300 0.787600 0.120200
vn -0.435700 0.787600 -0.435700
vn -0.342300 0.787600 -0.512300
vn -0.235800 0.787600 -0.569200
vn 0.000000 0.787600 0.616100
vn -0.120200 0.787600 0.604300
vn 0.435700 0.787600 0.435700
vn -0.120200 0.787600 -0.604300
vn -0.235800 0.787600 0.569200
vn 0.342300 0.787600 0.512300
vn 0.000000 0.787600 -0.616100
vn -0.342300 0.787600 0.512300
vn 0.235800 0.787600 0.569200
vn 0.120200 0.787600 -0.604300
vn -0.435700 0.787600 0.435700
vn 0.120200 0.787600 0.604300
vn 0.235800 0.787600 -0.569200
vn -0.512300 0.787600 0.342300
vn 0.342300 0.787600 -0.512300
vn -0.569200 0.787600 0.235800
vn 0.435700 0.787600 -0.435700
vn -0.604300 0.787600 0.120200
vn 0.512300 0.787600 -0.342300
vn -0.616100 0.787600 0.000000
vn 0.569200 0.787600 -0.235800
vn -0.604300 0.787600 -0.120200
vn -0.129400 0.748300 0.650600
vn 0.000000 0.748300 0.663400
vn 0.129400 0.748300 0.650600
vn 0.253900 0.748300 0.612900
vn 0.368500 0.748300 0.551600
vn 0.469100 0.748300 0.469100
vn 0.650600 0.748300 0.129400
vn 0.663400 0.748300 0.000000
vn 0.650600 0.748300 -0.129400
vn 0.612900 0.748300 -0.253900
vn 0.551600 0.748300 -0.368500
vn 0.469100 0.748300 -0.469100
vn 0.368500 0.748300 -0.551600
vn 0.253900 0.748300 -0.612900
vn 0.129400 0.748300 -0.650600
vn 0.000000 0.748300 -0.663400
vn -0.129400 0.748300 -0.650600
vn -0.253900 0.748300 -0.612900
vn -0.368500 0.748300 -0.551600
vn -0.469100 0.748300 -0.469100
vn -0.551600 0.748300 -0.368500
vn -0.612900 0.748300 -0.253900
vn -0.650600 0.748300 -0.129400
vn -0.663400 0.748300 0.000000
vn -0.650600 0.748300 0.129400
vn -0.612900 0.748300 0.253900
vn -0.551600 0.748300 0.368500
vn -0.469100 0.748300 0.469100
vn -0.368500 0.748300 0.551600
vn -0.253900 0.748300 0.612900
usemtl None
s 1
f 1//1 2//2 4//3 3//4
f 3//4 4//3 6//5 5//6
f 5//6 6//5 8//7 7//8
f 7//8 8//7 10//9 9//10
f 9//10 10//9 12//11 11//12
f 11//12 12//11 14//13 13//14
f 13//14 14//13 16//15 15//16
f 15//16 16//15 18//17 17//18
f 17//18 18//17 20//19 19//20
f 19//20 20//19 22//21 21//22
f 21//22 22//21 24//23 23//24
f 23//24 24//23 26//25 25//26
f 25//26 26//25 28//27 27//28
f 27//28 28//27 30//29 29//30
f 29//30 30//29 32//31 31//32
f 31//32 32//31 34//33 33//34
f 33//34 34//33 36//35 35//36
f 35//36 36//35 38//37 37//38
f 37//38 38//37 40//39 39//40
f 39//40 40//39 42//41 41//42
f 41//42 42//41 44//43 43//44
f 43//44 44//43 46//45 45//46
f 45//46 46//45 48//47 47//48
f 47//48 48//47 50//49 49//50
f 49//50 50//49 52//51 51//52
f 51//52 52//51 54//53 53//54
f 53//54 54//53 56//55 55//56
f 55//56 56//55 58//57 57//58
f 57//58 58//57 60//59 59//60
f 59//60 60//59 62//61 61//62
f 14//13 12//11 70//63 71//64
f 63//65 64//66 2//2 1//1
f 61//62 62//61 64//66 63//65
f 1//1 3//4 5//6 7//8 9//10 11//12 13//14 15//16 17//18 19//20 21//22 23//24 25//26 27//28 29//30 31//32 33//34 35//36 37//38 39//40 41//42 43//44 45//46 47//48 49//50 51//52 53//54 55//56 57//58 59//60 61//62 63//65
f 80//67 79//68 111//69 112//70
f 32//31 30//29 79//68 80//67
f 50//49 48//47 88//71 89//72
f 6//5 4//3 65//73 67//74
f 24//23 22//21 75//75 76//76
f 42//41 40//39 84//77 85//78
f 60//59 58//57 93//79 94//80
f 16//15 14//13 71//64 72//81
f 34//33 32//31 80//67 81//82
f 52//51 50//49 89//72 90//83
f 8//7 6//5 67//74 68//84
f 26//25 24//23 76//76 77//85
f 44//43 42//41 85//78 86//86
f 62//61 60//59 94//80 95//87
f 18//17 16//15 72//81 73//88
f 36//35 34//33 81//82 82//89
f 54//53 52//51 90//83 91//90
f 10//9 8//7 68//84 69//91
f 28//27 26//25 77//85 78//92
f 46//45 44//43 86//86 87//93
f 64//66 62//61 95//87 96//94
f 20//19 18//17 73//88 74//95
f 38//37 36//35 82//89 83//96
f 56//55 54//53 91//90 92//97
f 12//11 10//9 69//91 70//63
f 30//29 28//27 78//92 79//68
f 48//47 46//45 87//93 88//71
f 4//3 2//2 66//98 65//73
f 2//2 64//66 96//94 66//98
f 22//21 20//19 74//95 75//75
f 40//39 38//37 83//96 84//77
f 58//57 56//55 92//97 93//79
f 115//99 114//100 146//101 147//102
f 67//74 65//73 97//103 99//104
f 94//80 93//79 125//105 126//106
f 81//82 80//67 112//70 113//107
f 68//84 67//74 99//104 100//108
f 95//87 94//80 126//106 127//109
f 82//89 81//82 113//107 114//100
f 69//91 68//84 100//108 101//110
f 96//94 95//87 127//109 128//111
f 83//96 82//89 114//100 115//99
f 70//63 69//91 101//110 102//112
f 66//98 96//94 128//111 98//113
f 84//77 83//96 115//99 116//114
f 71//64 70//63 102//112 103//115
f 85//78 84//77 116//114 117//116
f 72//81 71//64 103//115 104//117
f 86//86 85//78 117//116 118//118
f 73//88 72//81 104//117 105//119
f 87//93 86//86 118//118 119//120
f 74//95 73//88 105//119 106//121
f 88//71 87//93 119//120 120//122
f 75//75 74//95 106//121 107//123
f 89//72 88//71 120//122 121//124
f 76//76 75//75 107//123 108//125
f 90//83 89//72 121//124 122//126
f 77//85 76//76 108//125 109//127
f 91//90 90//83 122//126 123//128
f 78//92 77//85 109//127 110//129
f 92//97 91//90 123//128 124//130
f 79//68 78//92 110//129 111//69
f 65//73 66//98 98//113 97//103
f 93//79 92//97 124//130 125//105
f 150//131 149//132 181//133 182//134
f 102//112 101//110 133//135 134//136
f 98//113 128//111 160//137 130//138
f 116//114 115//99 147//102 148//139
f 103//115 102//112 134//136 135//140
f 117//116 116//114 148//139 149//132
f 104//117 103//115 135//140 136//141
f 118//118 117//116 149//132 150//131
f 105//119 104//117 136//141 137//142
f 119//120 118//118 150//131 151//143
f 106//121 105//119 137//142 138//144
f 120//122 119//120 151//143 152//145
f 107//123 106//121 138//144 139//146
f 121//124 120//122 152//145 153//147
f 108//125 107//123 139//146 140//148
f 122//126 121//124 153//147 154//149
f 109//127 108//125 140//148 141//150
f 123//128 122//126 154//149 155//151
f 110//129 109//127 141//150 142//152
f 124//130 123//128 155//151 156//153
f 111//69 110//129 142//152 143//154
f 97//103 98//113 130//138 129//155
f 125//105 124//130 156//153 157//156
f 112//70 111//69 143//154 144//157
f 99//104 97//103 129//155 131//158
f 126//106 125//105 157//156 158//159
f 113//107 112//70 144//157 145//160
f 100//108 99//104 131//158 132//161
f 127//109 126//106 158//159 159//162
f 114//100 113//107 145//160 146//101
f 101//110 100//108 132//161 133//135
f 128//111 127//109 159//162 160//137
f 185//163 184//164 216//165 217//166
f 137//142 136//141 168//167 169//168
f 151//143 150//131 182//134 183//169
f 138//144 137//142 169//168 170//170
f 152//145 151//143 183//169 184//164
f 139//146 138//144 170//170 171//171
f 153//147 152//145 184//164 185//163
f 140//148 139//146 171//171 172//172
f 154//149 153//147 185//163 186//173
f 141//150 140//148 172//172 173//174
f 155//151 154//149 186//173 187//175
f 142//152 141//150 173//174 174//176
f 156//153 155//151 187//175 188//177
f 143//154 142//152 174//176 175//178
f 129//155 130//138 162//179 161//180
f 157//156 156//153 188//177 189//181
f 144//157 143//154 175//178 176//182
f 131//158 129//155 161//180 163//183
f 158//159 157//156 189//181 190//184
f 145//160 144//157 176//182 177//185
f 132//161 131//158 163//183 164//186
f 159//162 158//159 190//184 191//187
f 146//101 145//160 177//185 178//188
f 133//135 132//161 164//186 165//189
f 160//137 159//162 191//187 192//190
f 147//102 146//101 178//188 179//191
f 134//136 133//135 165//189 166//192
f 130//138 160//137 192//190 162//179
f 148//139 147//102 179//191 180//193
f 135//140 134//136 166//192 167//194
f 149//132 148//139 180//193 181//133
f 136//141 135//140 167//194 168//167
f 220//195 219//196 251//197 252//198
f 172//172 171//171 203//199 204//200
f 186//173 185//163 217//166 218//201
f 173//174 172//172 204//200 205//202
f 187//175 186//173 218//201 219//196
f 174//176 173//174 205//202 206//203
f 188//177 187//175 219//196 220//195
f 175//178 174//176 206//203 207//204
f 161//180 162//179 194//205 193//206
f 189//181 188//177 220//195 221//207
f 176//182 175//178 207//204 208//208
f 163//183 161//180 193//206 195//209
f 190//184 189//181 221//207 222//210
f 177//185 176//182 208//208 209//211
f 164//186 163//183 195//209 196//212
f 191//187 190//184 222//210 223//213
f 178//188 177//185 209//211 210//214
f 165//189 164//186 196//212 197//215
f 192//190 191//187 223//213 224//216
f 179//191 178//188 210//214 211//217
f 166//192 165//189 197//215 198//218
f 162//179 192//190 224//216 194//205
f 180//193 179//191 211//217 212//219
f 167//194 166//192 198//218 199//220
f 181//133 180//193 212//219 213//221
f 168//167 167//194 199//220 200//222
f 182//134 181//133 213//221 214//223
f 169//168 168//167 200//222 201//224
f 183//169 182//134 214//223 215//225
f 170//170 169//168 201//224 202//226
f 184//164 183//169 215//225 216//165
f 171//171 170//170 202//226 203//199
f 225//227 226//228 256//229 255//230 254//231 253//232 252//198 251//197 250//233 249//234 248//235 247//236 246//237 245//238 244//239 243//240 242//241 241//242 240//243 239//244 238//245 237//246 236//247 235//248 234//249 233//250 232//251 231//252 230//253 229//254 228//255 227//256
f 207//204 206//203 238//245 239//244
f 193//206 194//205 226//228 225//227
f 221//207 220//195 252//198 253//232
f 208//208 207//204 239//244 240//243
f 195//209 193//206 225//227 227//256
f 222//210 221//207 253//232 254//231
f 209//211 208//208 240//243 241//242
f 196//212 195//209 227//256 228//255
f 223//213 222//210 254//231 255//230
f 210//214 209//211 241//242 242//241
f 197//215 196//212 228//255 229//254
f 224//216 223//213 255//230 256//229
f 211//217 210//214 242//241 243//240
f 198//218 197//215 229//254 230//253
f 194//205 224//216 256//229 226//228
f 212//219 211//217 243//240 244//239
f 199//220 198//218 230//253 231//252
f 213//221 212//219 244//239 245//238
f 200//222 199//220 231//252 232//251
f 214//223 213//221 245//238 246//237
f 201//224 200//222 232//251 233//250
f 215//225 214//223 246//237 247//236
f 202//226 201//224 233//250 234//249
f 216//165 215//225 247//236 248//235
f 203//199 202//226 234//249 235//248
f 217//166 216//165 248//235 249//234
f 204//200 203//199 235//248 236//247
f 218//201 217//166 249//234 250//233
f 205//202 204//200 236//247 237//246
f 219//196 218//201 250//233 251//197
f 206//203 205//202 237//246 238//245
